<svg width="171" height="18" viewBox="0 0 171 18" fill="none" xmlns="http://www.w3.org/2000/svg">
<path d="M26.7436 4.39755L29.5834 10.4645H23.8837L26.7236 4.39755H26.7436ZM22.719 13.1002H30.7682L32.2802 16.3483H35.5893L28.2556 1.25151H25.2726L17.9389 16.3483H21.207L22.719 13.1002ZM123.288 4.39755L126.128 10.4645H120.427L123.267 4.39755H123.288ZM119.264 13.1002H127.312L128.824 16.3483H132.134L124.799 1.25151H121.816L114.483 16.3483H117.752L119.264 13.1002ZM89.297 8.76937C89.297 13.3864 92.7083 16.6755 97.6925 16.6755C100.941 16.6755 102.698 15.4697 104.231 14.2039L102.535 11.9965C101.493 12.794 100.021 13.8967 97.7545 13.8967C94.6085 13.8967 92.4831 11.7933 92.4831 8.76937C92.4831 5.74639 94.5875 3.70309 97.6315 3.70309C99.6748 3.70309 101.023 4.35653 102.146 5.29614L103.821 3.06969C102.248 1.76186 100.41 0.924316 97.6315 0.924316C92.8514 0.924316 89.297 4.19341 89.297 8.76937ZM148.6 2.94759C146.781 1.63976 145.106 0.924316 142.307 0.924316C137.445 0.924316 133.871 4.15239 133.871 8.76937C133.871 13.4064 137.363 16.6755 142.307 16.6755C145.454 16.6755 147.619 15.6128 149.417 13.9587V8.156H142.103V10.7306H146.556V12.732C145.924 13.2433 144.616 13.9587 142.389 13.9587C139.223 13.9587 137.016 11.7933 137.016 8.76937C137.016 5.74639 139.243 3.68211 142.307 3.68211C144.433 3.68211 145.822 4.37751 146.924 5.17404L148.6 2.94759ZM9.8897 9.79007C10.6252 9.79007 11.1365 9.89309 11.5648 10.2193C11.974 10.5265 12.2592 11.0168 12.2592 11.6903C12.2592 12.3647 11.974 12.8751 11.5648 13.1822C11.1365 13.5085 10.6252 13.5905 9.8897 13.5905H3.90479V9.79007H9.8897ZM9.29732 4.0093C10.1558 4.0093 10.6051 4.17242 10.9114 4.4586C11.1975 4.76576 11.3607 5.15401 11.3607 5.58232C11.3607 6.01158 11.1975 6.39983 10.9114 6.70604C10.6051 6.99126 10.1558 7.15534 9.29732 7.15534H3.90479V4.0093H9.29732ZM53.3828 16.3483H66.1301V13.5905H56.3657V9.79007H63.6785V7.15534H56.3657V4.0093H65.7218V1.25151H53.3828V16.3483ZM160.898 4.39755L163.737 10.4645H158.038L160.877 4.39755H160.898ZM156.874 13.1002H164.922L166.434 16.3483H169.743L162.409 1.25151H159.427L152.093 16.3483H155.362L156.874 13.1002ZM111.03 1.25151H108.047V16.3483H111.03V1.25151ZM49.2562 13.5905H42.0245V1.25151H39.0416V16.3483H49.2562V13.5905ZM73.73 11.7723C73.73 8.56524 73.5869 5.7464 73.5869 5.7464H73.6279C73.6279 5.7464 75.0168 7.72769 77.5504 10.8527L82.0043 16.3483H84.9252V1.25151H81.9423V5.90951C81.9423 9.1166 82.0644 11.9564 82.0644 11.9564H82.0243C82.0243 11.9564 80.6345 9.97513 78.1218 6.82814L73.6689 1.25151H70.7471V16.3483H73.73V11.7723ZM10.0938 16.3483C11.8099 16.3483 12.8516 15.981 13.6691 15.3476C14.7518 14.5101 15.4263 13.2022 15.4263 11.6292C15.4263 9.40278 13.9553 8.21801 12.7295 7.91084V7.87078C13.8943 7.33944 14.5277 6.13369 14.5277 4.94891C14.5277 3.60102 13.9963 2.66141 13.1588 2.06902C12.3413 1.49667 11.2385 1.25151 9.3183 1.25151H0.921875V16.3483H10.0938Z" fill="#1B1B1B" fill-opacity="0.55"/>
</svg>
