<svg width="93" height="30" viewBox="0 0 93 30" fill="none" xmlns="http://www.w3.org/2000/svg">
<g clip-path="url(#clip0_6193_14801)">
<path d="M92.3525 20.44C92.1944 20.44 92.0503 20.5423 91.9759 20.7562C91.0226 23.4764 89.7346 25.0946 88.6744 25.0946C88.0653 25.0946 87.8188 24.4157 87.8188 23.3509C87.8188 20.6865 89.4137 15.0368 90.2182 12.4607C90.3112 12.1492 90.3716 11.8702 90.3716 11.633C90.3716 10.8844 89.9624 10.5171 88.9487 10.5171C87.856 10.5171 86.6796 10.9449 85.5357 12.949C85.1404 11.182 83.9454 10.4101 82.2761 10.4101C80.3464 10.4101 78.4817 11.6516 76.9473 13.6651C75.4128 15.6785 73.6086 16.3388 72.2508 16.0133C73.2273 13.6232 73.59 11.8376 73.59 10.5124C73.59 8.43388 72.5624 7.1784 70.9023 7.1784C68.3774 7.1784 66.922 9.58707 66.922 12.1213C66.922 14.0789 67.8101 16.0923 69.7631 17.0688C68.1263 20.7702 65.7362 24.1181 64.8295 24.1181C63.6577 24.1181 63.3136 18.3848 63.3787 14.2835C63.4206 11.9306 63.6159 11.8097 63.6159 11.0983C63.6159 10.6891 63.3508 10.4101 62.286 10.4101C59.8029 10.4101 59.0357 12.5119 58.9194 14.9252C58.8819 15.8423 58.7383 16.752 58.4916 17.6361C57.4547 21.3375 55.3157 24.146 53.9207 24.146C53.2744 24.146 53.0977 23.4997 53.0977 22.6534C53.0977 19.989 54.5903 16.6596 54.5903 13.8185C54.5903 11.7307 53.6743 10.4101 51.9492 10.4101C49.9171 10.4101 47.2295 12.8281 44.6859 17.3571C45.5229 13.8883 45.867 10.531 43.3886 10.531C42.8509 10.539 42.3231 10.6762 41.8495 10.9309C41.6905 11.0052 41.5576 11.1257 41.468 11.2767C41.3784 11.4276 41.3364 11.602 41.3473 11.7772C41.5844 15.4692 38.3713 24.9272 35.3256 24.9272C34.7723 24.9272 34.5026 24.3274 34.5026 23.3602C34.5026 20.6911 36.0929 15.0554 36.8926 12.4747C36.9949 12.1399 37.0507 11.8516 37.0507 11.6005C37.0507 10.8937 36.6136 10.531 35.6232 10.531C34.5351 10.531 33.354 10.9449 32.2148 12.949C31.8149 11.182 30.6199 10.4101 28.9505 10.4101C26.2117 10.4101 23.1521 13.307 21.8082 17.0828C20.0087 22.1233 16.3817 26.9918 11.4993 26.9918C7.06791 26.9918 4.72899 23.3044 4.72899 17.478C4.72899 9.06628 10.9041 2.19366 15.4843 2.19366C17.6744 2.19366 18.7207 3.58864 18.7207 5.72762C18.7207 8.31764 17.2745 9.52197 17.2745 10.5078C17.2745 10.81 17.5256 11.1076 18.0232 11.1076C20.0134 11.1076 22.3569 8.76868 22.3569 5.57882C22.3569 2.38896 19.7669 0.0546875 15.1867 0.0546875C7.61661 0.0546875 0 7.67129 0 17.4315C0 25.1969 3.83155 29.8794 10.4577 29.8794C14.9775 29.8794 18.9253 26.3641 21.0549 22.2628C21.2967 25.6619 22.8405 27.4382 25.1934 27.4382C27.2859 27.4382 28.9784 26.192 30.2711 24.0019C30.7687 26.2943 32.0893 27.4149 33.8051 27.4149C35.772 27.4149 37.4181 26.1688 38.9851 23.8531C38.9619 25.6712 39.3757 27.3824 40.952 27.3824C41.696 27.3824 42.5842 27.2104 42.7423 26.5594C44.4023 19.696 48.5036 14.0929 49.759 14.0929C50.131 14.0929 50.2333 14.4509 50.2333 14.8741C50.2333 16.7387 48.9174 20.5609 48.9174 23.0022C48.9174 25.6387 50.038 27.3824 52.3537 27.3824C54.9205 27.3824 57.5291 24.239 59.2682 19.6449C59.8122 23.9368 60.9886 27.401 62.83 27.401C65.0899 27.401 69.1028 22.6441 71.5347 17.6082C72.488 17.7291 73.9201 17.6966 75.2965 16.7247C74.7106 18.2081 74.3665 19.8309 74.3665 21.4537C74.3665 26.1269 76.5985 27.4382 78.5189 27.4382C80.6068 27.4382 82.2993 26.192 83.5967 24.0019C84.0245 25.9781 85.1172 27.4103 87.126 27.4103C90.2693 27.4103 92.9988 24.1972 92.9988 21.5607C92.9988 20.8632 92.7012 20.44 92.3525 20.44ZM27.1092 24.8482C25.8397 24.8482 25.3422 23.5694 25.3422 21.663C25.3422 18.3522 27.6067 12.8234 30.0014 12.8234C31.0477 12.8234 31.4429 14.0557 31.4429 15.5622C31.4429 18.9242 29.29 24.8482 27.1092 24.8482ZM70.5908 14.9671C69.8328 14.065 69.5585 12.8374 69.5585 11.7446C69.5585 10.3962 70.0514 9.25692 70.6419 9.25692C71.2325 9.25692 71.4138 9.83817 71.4138 10.6473C71.4138 12.0004 70.9302 13.9766 70.5908 14.9671ZM80.4347 24.8482C79.1653 24.8482 78.6677 23.3788 78.6677 21.663C78.6677 18.4685 80.9322 12.8234 83.3456 12.8234C84.3918 12.8234 84.7638 14.0464 84.7638 15.5622C84.7638 18.9242 82.6481 24.8482 80.4347 24.8482Z" fill="#1B1B1B" fill-opacity="0.55"/>
</g>
<defs>
<clipPath id="clip0_6193_14801">
<rect width="92.9988" height="29.934" fill="white"/>
</clipPath>
</defs>
</svg>
