<svg width="108" height="13" viewBox="0 0 108 13" fill="none" xmlns="http://www.w3.org/2000/svg">
<g clip-path="url(#clip0_6193_6244)">
<path d="M31.0796 3.53026V9.00233H32.4439C32.7921 8.99716 33.1357 8.92221 33.4545 8.78191C33.7732 8.64161 34.0605 8.43882 34.2995 8.18552C34.79 7.66625 35.0583 6.97599 35.0474 6.26177C35.0578 5.90702 34.998 5.55371 34.8715 5.22214C34.7449 4.89057 34.5541 4.58727 34.3099 4.32968C34.07 4.07603 33.7806 3.87419 33.4597 3.73659C33.1388 3.59898 32.7931 3.52853 32.4439 3.52957H31.0803L31.0796 3.53026ZM32.4439 1.81455C34.9869 1.81455 36.9106 3.78491 36.9106 6.26177C36.9106 8.73864 34.9869 10.7201 32.4439 10.7201H29.4348C29.4061 10.7198 29.3778 10.7138 29.3514 10.7024C29.3251 10.6911 29.3012 10.6747 29.2811 10.6542C29.2611 10.6336 29.2453 10.6094 29.2347 10.5827C29.224 10.5561 29.2188 10.5276 29.2191 10.4989V2.04484C29.2191 1.92239 29.3158 1.82289 29.4348 1.82289L32.4439 1.81455ZM43.4653 9.19297C44.6202 9.19644 45.6632 8.48608 46.1077 7.39306C46.3255 6.85902 46.3837 6.27328 46.2753 5.70683C46.1669 5.14037 45.8965 4.61753 45.4969 4.20166C45.1043 3.79262 44.5968 3.51232 44.0415 3.39779C43.4863 3.28326 42.9093 3.33988 42.3869 3.56018C41.3196 4.01103 40.6225 5.07761 40.6204 6.26177C40.6204 7.87591 41.8915 9.18531 43.4653 9.19297ZM43.466 1.61278C46.1425 1.61278 48.1887 3.72229 48.1887 6.26177C48.1887 8.80126 46.1425 10.9108 43.4653 10.9108C40.7887 10.9108 38.7599 8.8117 38.7599 6.26177C38.7599 3.71185 40.8068 1.61278 43.466 1.61278ZM54.6905 9.19297C56.265 9.18879 57.5389 7.878 57.5375 6.26386C57.5354 4.64833 56.2587 3.34032 54.6849 3.33963C53.1098 3.33963 51.8324 4.64694 51.8303 6.26177C51.8303 7.03962 52.1315 7.78546 52.668 8.33511C52.9305 8.60598 53.2447 8.82146 53.592 8.96881C53.9393 9.11615 54.3133 9.19237 54.6905 9.19297ZM54.6898 1.61278C57.358 1.61278 59.4042 3.71185 59.4042 6.26177C59.4042 8.8117 57.3497 10.9108 54.6898 10.9108C52.0307 10.9108 49.9671 8.8117 49.9671 6.26177C49.9671 3.71185 52.0133 1.61278 54.6898 1.61278ZM65.6451 3.53026H63.7213V5.88537H65.6451C65.7971 5.89211 65.9488 5.86762 66.091 5.81341C66.2332 5.7592 66.3627 5.67643 66.4716 5.5702C66.6943 5.35452 66.8209 5.05535 66.8237 4.74087C66.8293 4.58132 66.8026 4.42229 66.7452 4.27332C66.6878 4.12435 66.6009 3.98851 66.4897 3.87396C66.3806 3.76123 66.249 3.6726 66.1036 3.61377C65.9581 3.55493 65.8019 3.5272 65.6451 3.53235V3.53026ZM61.8602 2.04484C61.8602 1.92239 61.9576 1.82289 62.0766 1.82289H65.6987C67.4255 1.82289 68.6751 3.12047 68.6751 4.74991C68.6883 5.85198 68.0865 6.86429 67.1256 7.35758L68.7961 10.3862C68.8192 10.421 68.8323 10.4615 68.8337 10.5033C68.8352 10.545 68.8251 10.5864 68.8045 10.6227C68.7844 10.6585 68.7544 10.6878 68.7181 10.707C68.6819 10.7262 68.6408 10.7347 68.5999 10.7313H67.134C67.0933 10.7318 67.0533 10.7209 67.0186 10.6997C66.9839 10.6786 66.9559 10.648 66.9378 10.6116L65.3278 7.61431H63.7144V10.4919C63.7148 10.5207 63.7096 10.5492 63.699 10.576C63.6884 10.6027 63.6727 10.6271 63.6526 10.6477C63.6326 10.6683 63.6087 10.6848 63.5823 10.6961C63.5558 10.7075 63.5274 10.7135 63.4987 10.7139H62.0863C62.0576 10.7135 62.0292 10.7075 62.0028 10.6961C61.9764 10.6848 61.9524 10.6683 61.9324 10.6477C61.9124 10.6271 61.8966 10.6027 61.886 10.576C61.8754 10.5492 61.8702 10.5207 61.8706 10.4919L61.8609 2.04553L61.8602 2.04484ZM73.5258 3.57201V9.04477H74.8895C75.2376 9.04005 75.5812 8.96558 75.9001 8.82576C76.2189 8.68595 76.5065 8.48362 76.7458 8.23074C77.2365 7.71208 77.5053 7.02233 77.4951 6.30839C77.5062 5.9532 77.447 5.59932 77.3208 5.26713C77.1945 4.93493 77.0039 4.63099 76.7597 4.37282C76.5193 4.11874 76.2294 3.91665 75.9079 3.77903C75.5863 3.64141 75.24 3.57119 74.8902 3.5727L73.5258 3.57201ZM74.8895 1.8542C77.4325 1.8542 79.3562 3.82665 79.3562 6.30839C79.3562 8.79013 77.4325 10.7626 74.8895 10.7626H71.8894C71.8607 10.7622 71.8323 10.7562 71.8059 10.7448C71.7795 10.7335 71.7555 10.717 71.7355 10.6964C71.7155 10.6758 71.6997 10.6514 71.6891 10.6247C71.6785 10.5979 71.6733 10.5694 71.6737 10.5406V2.08728C71.6737 1.96413 71.7705 1.86464 71.8894 1.86464L74.8895 1.8542ZM85.0307 4.03051L83.9753 6.95683H86.0841L85.0307 4.03051ZM83.3561 8.61062L82.6652 10.5587C82.6513 10.6046 82.6226 10.6445 82.5836 10.6722C82.5445 10.6999 82.4974 10.7138 82.4495 10.7118H80.9509C80.9127 10.7153 80.8743 10.7086 80.8396 10.6922C80.805 10.6758 80.7754 10.6503 80.754 10.6186C80.7321 10.5864 80.7188 10.5492 80.7156 10.5104C80.7123 10.4716 80.719 10.4327 80.7352 10.3973L83.9732 1.95161C83.9883 1.90707 84.0176 1.86869 84.0565 1.84231C84.0954 1.81594 84.1419 1.80301 84.1889 1.8055H85.8656C85.9127 1.80285 85.9594 1.81571 85.9985 1.8421C86.0375 1.86848 86.0669 1.90695 86.082 1.95161L89.32 10.3973C89.3361 10.4327 89.3428 10.4717 89.3393 10.5105C89.3359 10.5492 89.3226 10.5865 89.3006 10.6186C89.279 10.6502 89.2494 10.6755 89.2148 10.6918C89.1801 10.708 89.1418 10.7147 89.1037 10.7111H87.6057C87.5579 10.7131 87.5107 10.6992 87.4717 10.6715C87.4326 10.6438 87.4039 10.6039 87.39 10.558L86.6992 8.60993H83.3561V8.61062ZM91.0573 4.22045C91.0573 2.82199 92.2359 1.61278 94.097 1.61278C95.0993 1.5904 96.0697 1.96531 96.7966 2.65571C96.8187 2.67665 96.8364 2.70188 96.8484 2.72988C96.8605 2.75787 96.8667 2.78803 96.8667 2.81851C96.8667 2.84899 96.8605 2.87915 96.8484 2.90715C96.8364 2.93514 96.8187 2.96038 96.7966 2.98132L95.9665 3.82665C95.9467 3.84719 95.9229 3.86352 95.8966 3.87467C95.8703 3.88583 95.842 3.89157 95.8135 3.89157C95.7849 3.89157 95.7566 3.88583 95.7303 3.87467C95.704 3.86352 95.6803 3.84719 95.6604 3.82665C95.2694 3.46022 94.756 3.2526 94.2202 3.24431C93.4757 3.24431 92.9254 3.6875 92.9254 4.19888C92.9254 5.85198 97.3246 4.89811 97.3246 8.07907C97.3225 9.69112 96.1349 10.9108 94.0351 10.9108C93.452 10.9167 92.8737 10.8054 92.3345 10.5833C91.7953 10.3612 91.3063 10.033 90.8966 9.61807C90.8745 9.59713 90.8568 9.57189 90.8447 9.5439C90.8327 9.5159 90.8265 9.48574 90.8265 9.45526C90.8265 9.42478 90.8327 9.39462 90.8447 9.36663C90.8568 9.33863 90.8745 9.3134 90.8966 9.29246L91.6995 8.46869C91.7195 8.44715 91.7437 8.42997 91.7706 8.41822C91.7976 8.40648 91.8267 8.40041 91.856 8.40041C91.8854 8.40041 91.9145 8.40648 91.9414 8.41822C91.9684 8.42997 91.9926 8.44715 92.0126 8.46869C92.5179 8.96957 93.1984 9.25405 93.9099 9.26184C94.8401 9.26184 95.4531 8.75256 95.4531 8.11455C95.4531 6.46076 91.0559 7.41533 91.0559 4.23367M105.302 2.03371V5.37609H101.578V2.03371C101.579 2.00502 101.574 1.97654 101.563 1.94989C101.552 1.92324 101.536 1.89895 101.516 1.87841C101.496 1.85786 101.473 1.84146 101.446 1.83015C101.42 1.81883 101.391 1.81282 101.363 1.81246H99.9504C99.9217 1.81282 99.8934 1.81883 99.867 1.83015C99.8406 1.84146 99.8167 1.85786 99.7967 1.87841C99.7767 1.89895 99.7609 1.92324 99.7503 1.94989C99.7396 1.97654 99.7343 2.00502 99.7347 2.03371V10.478C99.7347 10.6005 99.8321 10.7 99.9504 10.7H101.363C101.481 10.7 101.578 10.6005 101.578 10.478V7.08276H105.299V10.478C105.299 10.6005 105.397 10.7 105.515 10.7H106.927C107.046 10.7 107.143 10.6005 107.143 10.478V2.03371C107.143 2.00502 107.138 1.97654 107.127 1.94989C107.117 1.92324 107.101 1.89895 107.081 1.87841C107.061 1.85786 107.037 1.84146 107.011 1.83015C106.984 1.81883 106.956 1.81282 106.927 1.81246H105.515C105.458 1.81392 105.403 1.83796 105.363 1.87937C105.323 1.92079 105.301 1.97624 105.302 2.03371ZM21.2911 2.93957C20.3115 1.12367 18.3947 -0.00692556 16.3102 3.1928e-05H0.538955C0.432447 0.000464256 0.328422 0.0322279 0.23984 0.0913652C0.151258 0.150502 0.0820354 0.234399 0.0407985 0.3326C0.000164257 0.430172 -0.0104187 0.537652 0.0104051 0.641275C0.0312289 0.744899 0.0825114 0.839947 0.157684 0.914246L3.59329 4.32342C3.89664 4.62537 4.30992 4.79444 4.73989 4.79444H15.858C16.6504 4.78609 17.2982 5.41366 17.3065 6.19498C17.3149 6.97631 16.6796 7.6164 15.8872 7.62405H8.22211C8.11553 7.62409 8.01131 7.65553 7.92247 7.71442C7.83364 7.77332 7.76411 7.85707 7.72257 7.95523C7.68154 8.05291 7.67068 8.16063 7.69139 8.26454C7.7121 8.36844 7.76342 8.46377 7.83876 8.53827L11.2765 11.9502C11.5817 12.252 11.9938 12.4211 12.423 12.4205H15.89C20.4005 12.4205 23.8111 7.66162 21.2911 2.93748" fill="#1B1B1B" fill-opacity="0.55"/>
</g>
<defs>
<clipPath id="clip0_6193_6244">
<rect width="107.145" height="12.5235" fill="white"/>
</clipPath>
</defs>
</svg>
