<svg width="171" height="39" viewBox="0 0 171 39" fill="none" xmlns="http://www.w3.org/2000/svg">
<path d="M35.9827 14.0752H41.0148V31.4064H35.9531L35.9827 14.0752Z" fill="#1B1B1B" fill-opacity="0.55"/>
<path d="M27.154 18.1652C27.3005 18.1652 28.2427 18.3421 28.2427 19.695C28.2427 21.0479 27.3309 21.019 27.3309 21.019H24.152V18.1356C24.152 18.1356 27.0067 18.1652 27.154 18.1652ZM18.6797 14.1634V31.7011H24.0351V25.2273H25.8595C25.8595 25.2273 26.8009 25.2858 27.5654 27.817C28.3299 30.3474 28.6245 31.3481 28.9487 31.5834H33.9808C33.9808 31.5834 32.6567 27.3463 32.0387 25.6396C31.4207 23.9337 31.1854 23.4918 30.7146 23.1092C30.7146 23.1092 33.3043 21.9028 33.3043 18.8424C33.3043 15.782 30.332 14.1338 28.4492 14.1338C26.5664 14.1338 18.6797 14.1634 18.6797 14.1634Z" fill="#1B1B1B" fill-opacity="0.55"/>
<path d="M2.20312 14.1631H15.9744V18.1056H7.55858V20.7545H15.5037V24.8148H7.61781V27.4637H15.9744V31.7008H2.20312V14.1631Z" fill="#1B1B1B" fill-opacity="0.55"/>
<path d="M57.5774 18.6356L57.9889 14.5753C57.9889 14.5753 55.9291 13.5747 52.8095 13.5747C49.6907 13.5747 42.8047 14.9876 42.8047 22.3436C42.8047 29.6995 48.1601 31.9361 52.6919 31.9361C54.7516 31.9361 57.5174 31.407 58.165 31.054L57.8704 26.9937C57.8704 26.9937 55.6346 27.9351 53.3979 27.9351C51.1613 27.9351 48.1601 26.4054 48.1601 22.7558C48.1601 19.1063 50.8083 17.4596 53.1626 17.4596C55.5169 17.4596 57.5774 18.6356 57.5774 18.6356Z" fill="#1B1B1B" fill-opacity="0.55"/>
<path d="M67.3501 13.5749C67.3501 13.5749 59.5234 13.2219 59.5234 19.0481C59.5234 22.0492 61.1125 23.2267 63.1137 23.9328C65.1142 24.6389 67.88 25.1096 67.88 26.5217C67.88 27.9338 65.5257 27.993 65.055 27.993C64.5843 27.993 60.1118 26.9339 60.1118 26.9339L59.9941 30.995C59.9941 30.995 62.5838 31.8195 65.4673 31.8195C68.3507 31.8195 72.8825 31.1719 72.8825 25.6395C72.8825 22.5207 70.4105 21.6962 69.4098 21.2255C68.4092 20.7548 64.7612 19.9902 64.7612 18.9304C64.7612 17.8705 66.4671 17.3414 67.174 17.3414C67.8808 17.3414 71.7057 18.1651 71.7057 18.1651V14.4579C71.7057 14.4579 69.9398 13.5749 67.3501 13.5749Z" fill="#1B1B1B" fill-opacity="0.55"/>
<path d="M81.8579 13.5158C81.8579 13.5158 74.0312 13.1628 74.0312 18.989C74.0312 21.9909 75.6203 23.1677 77.6208 23.8737C79.6213 24.5798 82.3878 25.0513 82.3878 26.4634C82.3878 27.8755 80.0335 27.9347 79.5628 27.9347C79.0921 27.9347 74.6189 26.8756 74.6189 26.8756L74.5012 30.9366C74.5012 30.9366 77.0908 31.7604 79.9743 31.7604C82.8578 31.7604 87.3895 31.1128 87.3895 25.5812C87.3895 22.4624 84.9183 21.6379 83.9169 21.1672C82.9162 20.6965 79.2675 19.9312 79.2675 18.8721C79.2675 17.813 80.9742 17.2831 81.681 17.2831C82.3878 17.2831 86.2119 18.1068 86.2119 18.1068V14.3996C86.2119 14.3996 84.4468 13.5158 81.8579 13.5158Z" fill="#1B1B1B" fill-opacity="0.55"/>
<path d="M105.66 22.5197C105.66 31.5239 96.9503 31.7 96.6557 31.7C96.3611 31.7 87.9453 31.2293 87.9453 22.6374C87.9453 14.0446 96.7734 13.5747 96.7734 13.5747C96.7734 13.5747 105.66 13.5155 105.66 22.5197ZM96.7149 17.2819C96.7149 17.2819 93.1839 17.9295 93.1839 22.4612C93.1839 26.993 95.9497 27.9928 96.7734 27.9928C97.5971 27.9928 100.363 27.1691 100.363 22.5789C100.363 17.9888 96.7149 17.2819 96.7149 17.2819Z" fill="#1B1B1B" fill-opacity="0.55"/>
<path d="M107.422 13.6924V31.1709H112.542V21.7552L117.838 31.1124H124.077V13.5747H118.956V23.5203L113.542 13.6924H107.422Z" fill="#1B1B1B" fill-opacity="0.55"/>
<path d="M146.178 16.7808C144.345 17.49 142.285 16.5782 141.576 14.746C140.868 12.9131 141.779 10.8533 143.612 10.1449L164.013 2.25672C165.846 1.54754 167.905 2.45934 168.614 4.29151C169.323 6.12446 168.411 8.18419 166.579 8.89259L146.178 16.7808Z" fill="#1B1B1B" fill-opacity="0.55"/>
<path d="M146.178 26.7735C144.345 27.4819 142.285 26.5708 141.576 24.7387C140.868 22.9057 141.779 20.8452 143.612 20.1376L164.013 12.2486C165.846 11.5402 167.905 12.4512 168.614 14.2842C169.323 16.1171 168.411 18.1768 166.579 18.8852L146.178 26.7735Z" fill="#1B1B1B" fill-opacity="0.55"/>
<path d="M146.178 36.2754C144.345 36.9846 142.285 36.0728 141.576 34.2407C140.868 32.4077 141.779 30.348 143.612 29.6396L164.013 21.7513C165.846 21.0422 167.905 21.954 168.614 23.7861C169.323 25.6191 168.411 27.6788 166.579 28.3872L146.178 36.2754Z" fill="#1B1B1B" fill-opacity="0.55"/>
</svg>
