<svg width="120" height="22" viewBox="0 0 120 22" fill="none" xmlns="http://www.w3.org/2000/svg">
<path d="M24.1635 6.11137C19.7891 6.11137 16.4041 9.45934 16.4041 13.9764C16.4041 18.4935 19.737 21.8415 24.1635 21.8415C28.59 21.8415 31.9749 18.4404 31.9749 13.9764C31.9749 9.51248 28.6421 6.11137 24.1635 6.11137ZM24.2156 18.5467C21.7159 18.5467 19.9453 16.5804 19.9453 13.9233C19.9453 11.2662 21.7159 9.29991 24.2156 9.29991C26.7152 9.29991 28.5379 11.2662 28.5379 13.9233C28.5379 16.5804 26.6631 18.5467 24.2156 18.5467ZM32.9123 9.51248H35.0475V21.5226H38.5366V6.37708H32.9123V9.51248ZM7.70732 9.35305C9.52999 9.35305 10.9881 10.469 11.5089 12.1696H15.1543C14.4773 8.55592 11.561 6.05823 7.70732 6.05823C3.38497 6.11137 0 9.45934 0 13.9764C0 18.4935 3.33289 21.8415 7.75939 21.8415C11.5089 21.8415 14.4773 19.397 15.1543 15.7301H11.5089C10.9881 17.4307 9.52999 18.5998 7.75939 18.5998C5.25972 18.5998 3.48912 16.6336 3.48912 13.9764C3.48912 11.3193 5.20765 9.35305 7.70732 9.35305ZM98.5807 12.4885L96.029 12.1165C94.8312 11.957 93.9459 11.5319 93.9459 10.5753C93.9459 9.51248 95.0916 8.98106 96.6018 8.98106C98.2683 8.98106 99.3619 9.72505 99.5702 10.8942H102.903C102.539 7.86507 100.247 6.05823 96.706 6.05823C93.0606 6.05823 90.613 7.97135 90.613 10.6816C90.613 13.2324 92.1753 14.7736 95.4041 15.1987L97.9558 15.5707C99.2057 15.7301 99.8827 16.2616 99.8827 17.165C99.8827 18.3872 98.6849 18.8655 97.0184 18.8655C94.9875 18.8655 93.8418 18.0153 93.6335 16.7398H90.2485C90.561 19.7158 92.8523 21.7884 96.9664 21.7884C100.716 21.7884 103.268 20.0347 103.268 17.0055C103.268 14.3484 101.445 12.9667 98.5807 12.4885ZM36.8181 0.159427C35.5682 0.159427 34.5788 1.11599 34.5788 2.39141C34.5788 3.66682 35.5161 4.62338 36.8181 4.62338C38.0679 4.62338 39.0573 3.66682 39.0573 2.39141C39.0573 1.11599 38.0679 0.159427 36.8181 0.159427ZM87.5405 11.585C87.5405 8.29021 85.5616 6.11137 81.4476 6.11137C77.5418 6.11137 75.3546 8.13078 74.8859 11.213H78.323C78.4792 9.99076 79.4166 9.0342 81.3955 9.0342C83.1661 9.0342 83.9993 9.83133 83.9993 10.7879C83.9993 12.0633 82.437 12.3822 80.4581 12.5947C77.8022 12.9136 74.5214 13.817 74.5214 17.3244C74.5214 20.0347 76.5003 21.7884 79.677 21.7884C82.1767 21.7884 83.6869 20.7255 84.468 19.0781C84.5722 20.5661 85.6658 21.5226 87.2281 21.5226H89.259V18.3872H87.5405V11.585ZM84.1035 15.3581C84.1035 17.3775 82.385 18.8655 80.2498 18.8655C78.9479 18.8655 77.8543 18.3341 77.8543 17.1118C77.8543 15.6238 79.6249 15.1987 81.2393 15.0393C82.8016 14.8799 83.6348 14.561 84.1035 13.8702V15.3581ZM65.7726 6.11137C63.8457 6.11137 62.2314 6.9085 61.0857 8.29021V0H57.6486V21.5226H61.0336V19.5564C62.1793 20.9912 63.8457 21.8415 65.7726 21.8415C69.9387 21.8415 73.0633 18.4935 73.0633 13.9764C73.0633 9.45934 69.8866 6.11137 65.7726 6.11137ZM65.2518 18.5467C62.7521 18.5467 60.9815 16.5804 60.9815 13.9233C60.9815 11.2662 62.8042 9.29991 65.3039 9.29991C67.8036 9.29991 69.5742 11.2662 69.5742 13.9233C69.5742 16.6336 67.7515 18.5467 65.2518 18.5467ZM49.3685 6.11137C47.1292 6.11137 45.6711 7.06793 44.7858 8.34335V6.37708H41.3487V21.5226H44.7858V13.2856C44.7858 10.9473 46.2439 9.35305 48.379 9.35305C50.3579 9.35305 51.6078 10.7879 51.6078 12.8604V21.5226H55.0448V12.5947C55.0448 8.76849 53.118 6.11137 49.3685 6.11137ZM119.724 13.4982C119.724 9.14048 116.599 6.11137 112.433 6.11137C108.007 6.11137 104.726 9.51248 104.726 13.9764C104.726 18.7061 108.215 21.8415 112.485 21.8415C116.078 21.8415 118.891 19.6627 119.62 16.5804H116.026C115.506 17.909 114.256 18.7061 112.537 18.7061C110.298 18.7061 108.631 17.3244 108.267 14.8267H119.724V13.4982ZM108.475 12.329C109.048 10.2033 110.558 9.19362 112.381 9.19362C114.36 9.19362 115.818 10.3096 116.183 12.329H108.475Z" fill="#1B1B1B" fill-opacity="0.55"/>
</svg>
