<svg width="91" height="31" viewBox="0 0 91 31" fill="none" xmlns="http://www.w3.org/2000/svg">
<g clip-path="url(#clip0_6193_17121)">
<path d="M0 0.191414H4.12548V12.5981H6.22097V0.191414H10.3465V30.1327H6.22097V15.6204H4.12548V30.1327H0V0.191414ZM20.0834 0.191414V3.21375H16.5322V12.6031H20.0834V15.6255H16.5322V27.1154H20.0834V30.1377H12.4117V0.191414H20.0834ZM29.8657 13.943C30.2485 14.1798 32.203 14.8397 32.1979 17.2071V26.5965C32.1979 28.2286 32.5606 29.7498 32.8074 30.1327H28.6819C28.2588 29.4476 27.9163 27.8961 27.9163 26.1986V17.2223C27.9163 16.1594 27.6946 15.6204 27.1154 15.6204H26.0072V30.1327H21.8817V0.191414H28.0724C30.7271 0.191414 32.2533 1.71266 32.2533 4.29675V10.0039C32.2483 13.4645 30.0168 13.7315 29.8657 13.943ZM26.0072 12.5981H27.0751C27.6695 12.5981 27.9767 12.1649 27.9767 11.6108V4.10534C27.9767 3.58146 27.6795 3.20871 27.2111 3.20871H26.0072V12.5981ZM37.8497 18.945V26.0676C37.8497 26.7124 38.1519 26.9643 38.5045 27.06C38.8202 27.1412 39.1527 27.1289 39.4616 27.0247C39.7437 26.8937 39.9502 26.6116 39.9502 26.0827V19.7459C39.9502 16.7689 33.7242 14.9051 33.7242 9.66643V4.58387C33.7192 1.60687 35.2857 0 38.8773 0C42.1615 0 43.8792 1.1233 43.8792 4.28164V10.2759H39.7588V3.91392C39.7588 3.36486 39.5724 3.12308 39.3054 3.02737C39.0452 2.95423 38.7698 2.95423 38.5096 3.02737C38.2124 3.12811 38.0008 3.37494 38.0008 3.91392V9.69665C38.0008 12.2959 44.2268 14.6986 44.2268 19.3983V25.0904C44.2268 28.7323 42.4688 30.2838 39.0687 30.2838C35.9255 30.2838 33.6839 29.6491 33.6839 25.5488V18.945H37.8497ZM45.5314 0.191414H49.6569V12.5981H51.7524V0.191414H55.8779V30.1327H51.7524V15.6204H49.6519V30.1327H45.5314V0.191414ZM65.6098 0.191414V3.21375H62.0636V12.6031H65.6098V15.6255H62.0636V27.1154H65.6098V30.1377H57.9381V0.191414H65.6098ZM73.3369 15.6204V30.1327H69.2114V15.6204L65.7307 0.191414H69.8562L71.6142 10.3515L73.6039 0.191414H76.6564L73.3369 15.6204ZM80.3941 0.191414L78.7872 6.15045H76.3038L77.6034 0.191414H80.3941ZM77.135 30.2183C76.7596 30.2183 76.3995 30.0692 76.1341 29.8037C75.8686 29.5383 75.7195 29.1782 75.7195 28.8028C75.7195 28.4274 75.8686 28.0674 76.1341 27.802C76.3995 27.5365 76.7596 27.3874 77.135 27.3874C77.3215 27.3854 77.5065 27.4204 77.6794 27.4904C77.8522 27.5604 78.0095 27.6639 78.1421 27.7951C78.2747 27.9263 78.3799 28.0824 78.4517 28.2545C78.5235 28.4267 78.5605 28.6113 78.5605 28.7978C78.5619 28.9851 78.5259 29.1709 78.4547 29.3442C78.3834 29.5174 78.2784 29.6748 78.1457 29.807C78.013 29.9393 77.8552 30.0438 77.6817 30.1144C77.5082 30.185 77.3223 30.2203 77.135 30.2183ZM75.9865 28.7978C75.9865 29.1017 76.1072 29.3932 76.3221 29.6081C76.537 29.823 76.8285 29.9438 77.1325 29.9438C77.4364 29.9438 77.7279 29.823 77.9428 29.6081C78.1577 29.3932 78.2784 29.1017 78.2784 28.7978C78.2825 28.6451 78.2559 28.4932 78.2002 28.3509C78.1446 28.2087 78.061 28.079 77.9544 27.9696C77.8478 27.8602 77.7204 27.7733 77.5797 27.714C77.4389 27.6546 77.2877 27.6241 77.135 27.6241C76.9816 27.6227 76.8296 27.6523 76.6879 27.7111C76.5463 27.7699 76.418 27.8567 76.3107 27.9663C76.2034 28.0759 76.1194 28.2061 76.0637 28.3489C76.008 28.4918 75.9817 28.6445 75.9865 28.7978ZM76.8378 28.9086V29.6189H76.591V27.9868H77.2105C77.5934 27.9868 77.7848 28.1278 77.7848 28.4502C77.7848 28.7474 77.6034 28.8683 77.3667 28.9036L77.8251 29.6189H77.548L77.1199 28.9086H76.8378ZM76.8378 28.6971H77.135C77.3415 28.6971 77.5279 28.6819 77.5279 28.4301C77.5279 28.2286 77.3465 28.1933 77.1753 28.1933H76.8428V28.6971H76.8378ZM84.2878 18.94V26.0626C84.2878 26.7073 84.5901 26.9643 84.9427 27.06C85.2586 27.1419 85.5918 27.1279 85.8997 27.0197C86.1818 26.8937 86.3884 26.6116 86.3884 26.0777V19.7459C86.3884 16.7639 80.1674 14.9051 80.1674 9.66139V4.58387C80.1674 1.60184 81.734 0 85.3205 0C88.6047 0 90.3224 1.1233 90.3224 4.28164V10.2759H86.1969V3.91392C86.1969 3.35983 86.0106 3.12308 85.7436 3.02737C85.484 2.94922 85.2073 2.94922 84.9477 3.02737C84.6505 3.12811 84.4339 3.37494 84.4339 3.91896V9.70169C84.444 12.2959 90.67 14.7037 90.67 19.4034V25.0904C90.67 28.7323 88.912 30.2838 85.5169 30.2838C82.3687 30.2838 80.1321 29.6491 80.1321 25.5488V18.94H84.2878Z" fill="#1B1B1B" fill-opacity="0.55"/>
</g>
<defs>
<clipPath id="clip0_6193_17121">
<rect width="90.67" height="30.2838" fill="white"/>
</clipPath>
</defs>
</svg>
