<svg width="57" height="30" viewBox="0 0 57 30" fill="none" xmlns="http://www.w3.org/2000/svg">
<g clip-path="url(#clip0_6193_17075)">
<path d="M38.9785 0.189077C40.683 -0.648096 41.5277 -0.538235 41.5468 0.310328C41.5695 1.41265 41.4066 2.87853 41.2891 3.9392C40.6565 9.70412 39.5996 14.4149 39.5201 20.3339C42.3043 13.1262 44.6377 8.11659 47.6453 1.94673C48.6 -0.019257 49.2098 0.348208 49.9939 -0.000316143C53.047 -1.36018 53.1607 -0.526843 52.7628 1.13611C51.2818 7.29538 47.4899 26.6882 46.9105 29.6744C46.7438 30.5383 45.8044 30.1721 45.5619 29.8342C44.4748 28.3304 43.2475 28.3069 43.3838 27.3069C44.0657 22.3283 46.5203 9.8371 47.1605 6.89381C43.8989 13.5803 40.5164 21.9393 38.7776 26.6788C38.4102 27.6853 37.7397 27.6114 37.3231 26.875C36.7359 25.8406 35.5957 25.3125 35.4063 24.0901C34.8116 20.2037 36.0882 12.7959 36.2661 8.10938C34.4897 13.2288 31.5085 23.1681 30.2016 27.6587C29.6638 29.5168 27.8682 29.2137 28.3455 27.4027C30.3303 19.8665 34.6071 6.53774 36.4556 1.74595C36.8914 0.617067 38.0315 0.654945 38.9785 0.189077Z" fill="#1B1B1B" fill-opacity="0.55"/>
<path d="M28.1537 -0.735274C27.578 -0.875399 25.9075 0.0261441 24.8809 0.204148C24.5552 0.260966 24.2445 0.605648 24.1346 0.851926C22.4906 4.62854 21.0171 8.22861 19.7406 11.5082C18.1079 11.787 16.1989 12.1541 14.0624 12.634C15.5927 8.70852 17.1383 4.83681 18.6459 1.11324C19.3883 -0.720175 17.4338 -0.894402 16.6761 0.961722C15.6912 3.3747 13.8465 7.89565 11.8047 13.1651C10.3047 13.5329 8.71376 13.9533 7.0508 14.4337C5.84239 14.7826 5.79321 15.1045 6.31596 15.8292C6.60383 16.2327 7.19855 16.192 7.47125 16.4796C8.17585 17.2247 8.60389 18.116 9.86522 18.2508C8.74018 21.2604 7.61516 24.3639 6.59621 27.3522C5.95604 29.228 7.77804 29.6117 8.47886 27.6268C9.60768 24.4271 10.7971 21.1887 12.0206 17.9599C13.0396 17.7231 15.5055 17.192 17.7821 16.698C15.9752 21.6504 14.7857 25.4115 14.335 27.2423C14.2517 27.5945 14.3919 27.79 14.4676 27.9336C15.0775 28.8211 15.657 28.8574 16.4412 29.9548C16.6533 30.254 17.3655 30.4154 17.6079 29.6786C19.2822 24.6213 21.0057 19.8761 22.6118 15.6222C23.2784 15.4764 24.4792 15.1866 25.2141 14.0899C26.5209 12.1436 26.8959 12.5384 27.2104 11.9467C27.6043 11.2039 27.3429 10.5065 25.949 10.6788C25.949 10.6788 25.4225 10.7163 24.4489 10.8273C25.9944 6.84802 27.3467 3.47291 28.3202 0.900929C28.6537 0.0299169 28.6954 -0.606473 28.1537 -0.735274Z" fill="#1B1B1B" fill-opacity="0.55"/>
<path d="M25.8756 25.0735C26.2355 25.983 27.3605 25.7076 26.9325 24.6099C26.4968 23.4916 25.4135 20.1252 25.1293 19.0407C24.743 17.5793 26.4172 17.979 25.5688 18.9344C24.8415 19.7559 24.3566 20.0851 23.0119 21.6473C21.7126 23.1553 22.0649 25.1122 23.4551 25.5444C25.0233 26.0323 26.4059 24.3042 27.262 23.0364C28.0916 21.8087 27.2885 21.0886 26.4514 21.8144C25.9134 22.2811 25.2922 22.9977 24.6634 23.3841C24.152 23.6951 23.7505 23.361 24.4323 22.4224C25.224 21.3356 26.1104 20.425 26.7695 19.398C28.1143 17.3052 25.4551 16.0987 24.3111 17.4582C23.6974 18.1829 23.8528 18.8943 24.0194 19.5049C24.2884 20.4829 25.2885 23.605 25.8756 25.0735Z" fill="#1B1B1B" fill-opacity="0.55"/>
</g>
<defs>
<clipPath id="clip0_6193_17075">
<rect width="56.9993" height="29.9996" fill="white"/>
</clipPath>
</defs>
</svg>
