<svg width="66" height="22" viewBox="0 0 66 22" fill="none" xmlns="http://www.w3.org/2000/svg">
<path d="M28.7115 8.28226C31.708 8.28226 34.1388 10.713 34.1388 13.7095C34.1388 16.706 31.708 19.1367 28.7115 19.1367C25.715 19.1367 23.2843 16.706 23.2843 13.7095C23.2843 10.713 25.7129 8.28226 28.7115 8.28226ZM47.0169 8.24962C49.3889 8.26485 51.3583 9.96656 51.787 12.2167L51.7913 12.2471H42.2165C42.6691 9.96874 44.6406 8.27356 47.0126 8.24962H47.0169ZM64.2017 5.72751C64.1603 5.72533 64.1103 5.72534 64.0602 5.72534C62.5282 5.72534 61.1899 6.54573 60.4566 7.77087L60.4457 7.79046V5.85155H57.3709V21.5522H60.4762V12.6192C60.4609 12.4974 60.4522 12.3559 60.4522 12.2123C60.4522 10.2495 62.0277 8.65437 63.9819 8.62173H65.2767V5.72534H64.1995L64.2017 5.72751ZM47.0822 5.54254C42.6147 5.6013 39.0132 9.23757 39.0132 13.7138C39.0132 18.2271 42.6713 21.8873 47.1867 21.8873C47.2454 21.8873 47.3064 21.8873 47.3651 21.8851H47.3564C47.3999 21.8851 47.45 21.8873 47.5022 21.8873C50.2115 21.8873 52.6139 20.5773 54.1111 18.5557L54.1263 18.5339L51.8805 16.8713C50.8926 18.2728 49.2801 19.1758 47.4587 19.1758C47.4217 19.1758 47.3869 19.1758 47.3499 19.1758H47.3564C44.7342 19.1758 42.5603 17.2565 42.1621 14.7453L42.1577 14.7148H54.9314V13.7008C54.938 13.5898 54.9402 13.4592 54.9402 13.3287C54.9402 9.02867 51.454 5.54254 47.154 5.54254C47.1301 5.54254 47.104 5.54254 47.0801 5.54254H47.0822ZM20.2465 0V21.55H23.3192V19.5784C24.7423 21.0234 26.7182 21.9177 28.903 21.9177C28.9096 21.9177 28.9161 21.9177 28.9226 21.9177C28.9379 21.9177 28.9574 21.9177 28.977 21.9177C33.5077 21.9177 37.1809 18.2445 37.1809 13.7138C37.1809 9.18317 33.5077 5.5099 28.977 5.5099C28.9596 5.5099 28.94 5.5099 28.9226 5.5099H28.9248C28.9226 5.5099 28.9183 5.5099 28.9161 5.5099C26.7378 5.5099 24.7663 6.40646 23.3561 7.84922L23.354 7.85139V0.0043519H20.2465V0ZM0.0130565 0V13.4832C0.00435204 13.6181 0 13.7769 0 13.938C0 18.3467 3.57317 21.9177 7.97978 21.9177C8.04724 21.9177 8.11252 21.9177 8.17998 21.9156H8.1691C8.20174 21.9156 8.23874 21.9156 8.27573 21.9156C10.4671 21.9156 12.4473 21.0103 13.8618 19.5501L13.864 19.548V21.55H17.0628V0H13.8313V13.2917C13.84 13.4092 13.8466 13.5463 13.8466 13.6855C13.8466 16.6233 11.4724 19.0061 8.53904 19.0192C8.53034 19.0192 8.5151 19.0192 8.50422 19.0192C5.58824 19.0192 3.22499 16.6559 3.22499 13.7399C3.22499 13.5811 3.23152 13.4266 3.24457 13.2721L3.2424 13.2917V0.00217699H0.00870431L0.0130565 0Z" fill="#1B1B1B" fill-opacity="0.55"/>
</svg>
