<svg width="139" height="25" viewBox="0 0 139 25" fill="none" xmlns="http://www.w3.org/2000/svg">
<g clip-path="url(#clip0_6193_17107)">
<path d="M49.5349 7.4502H45.9844L50.2745 20.683H54.0963L58.3865 7.4502H54.836L52.1494 17.4181L49.5349 7.4502Z" fill="#1B1B1B" fill-opacity="0.55"/>
<path d="M0 3.02344H3.6738V20.6836H0V3.02344Z" fill="#1B1B1B" fill-opacity="0.55"/>
<path d="M7.29688 3.02344H10.9707V20.6836H7.29688V3.02344Z" fill="#1B1B1B" fill-opacity="0.55"/>
<path d="M14.5938 3.02344H25.4671V5.96681H18.2675V10.1716H24.9741V13.115H18.2675V17.7403H25.4671V20.6836H14.5938V3.02344Z" fill="#1B1B1B" fill-opacity="0.55"/>
<path d="M27.7109 3.02344H31.1874V20.6836H27.7109V3.02344Z" fill="#1B1B1B" fill-opacity="0.55"/>
<path d="M33.2812 14.0542C33.2812 9.23098 35.6729 7.15332 39.396 7.15332C43.1191 7.15332 45.2396 9.20624 45.2396 14.1036V14.8951H36.7084C36.8317 17.7643 37.6947 18.7289 39.3467 18.7289C40.6534 18.7289 41.467 17.9621 41.6151 16.6265H45.0916C44.8697 19.5451 42.4535 20.9797 39.3467 20.9797C35.4018 20.9797 33.2812 18.8773 33.2812 14.0542ZM41.8124 12.5948C41.6398 10.1709 40.8014 9.37939 39.3467 9.37939C37.892 9.37939 36.9796 10.1956 36.7332 12.5948H41.8124Z" fill="#1B1B1B" fill-opacity="0.55"/>
<path d="M59.0547 14.0542C59.0547 9.23098 61.4464 7.15332 65.1694 7.15332C68.8925 7.15332 71.013 9.20624 71.013 14.1036V14.8951H62.4819C62.6052 17.7643 63.4681 18.7289 65.1202 18.7289C66.4268 18.7289 67.2405 17.9621 67.3885 16.6265H70.865C70.6431 19.5451 68.2267 20.9797 65.1202 20.9797C61.175 20.9797 59.0547 18.8773 59.0547 14.0542ZM67.5857 12.5948C67.4131 10.1709 66.5749 9.37939 65.1202 9.37939C63.6654 9.37939 62.753 10.1956 62.5066 12.5948H67.5857Z" fill="#1B1B1B" fill-opacity="0.55"/>
<path d="M87.4766 3.02344H91.1504V17.7403H98.054V20.6836H87.4766V3.02344Z" fill="#1B1B1B" fill-opacity="0.55"/>
<path fill-rule="evenodd" clip-rule="evenodd" d="M98.9219 14.0542C98.9219 9.00838 101.24 7.15332 104.223 7.15332C105.702 7.15332 107.058 7.99429 107.601 8.88471V7.45013H111.151V20.6829H107.699V19.1246C107.182 20.1635 105.727 20.9797 104.124 20.9797C100.968 20.9797 98.9219 18.9515 98.9219 14.0542ZM105.135 9.7504C106.861 9.7504 107.798 11.0613 107.798 14.0542C107.798 17.047 106.861 18.3826 105.135 18.3826C103.409 18.3826 102.423 17.047 102.423 14.0542C102.423 11.0613 103.409 9.7504 105.135 9.7504Z" fill="#1B1B1B" fill-opacity="0.55"/>
<path fill-rule="evenodd" clip-rule="evenodd" d="M117.288 19.1254V20.6836H113.836V3.02344H117.312V8.88544C117.904 7.97027 119.285 7.15404 120.764 7.15404C123.674 7.15404 125.991 9.0091 125.991 14.0549C125.991 19.1006 123.723 20.9804 120.69 20.9804C119.088 20.9804 117.781 20.1642 117.288 19.1254ZM119.778 9.77586C121.504 9.77586 122.49 11.062 122.49 14.0549C122.49 17.0477 121.504 18.3833 119.778 18.3833C118.052 18.3833 117.115 17.0477 117.115 14.0549C117.115 11.062 118.052 9.77586 119.778 9.77586Z" fill="#1B1B1B" fill-opacity="0.55"/>
<path d="M127.422 16.7502H130.898C130.948 18.1353 131.687 18.8031 132.994 18.8031C134.301 18.8031 135.041 18.2095 135.041 17.1706C135.041 16.2307 134.474 15.8845 133.241 15.5877L132.18 15.3156C129.172 14.5488 127.668 13.7326 127.668 11.2344C127.668 8.73631 129.986 7.15332 132.945 7.15332C135.904 7.15332 138.147 8.31582 138.246 11.0613H134.769C134.695 9.84934 133.956 9.32993 132.896 9.32993C131.835 9.32993 131.095 9.84934 131.095 10.8387C131.095 11.7539 131.687 12.1002 132.723 12.3475L133.808 12.6196C136.668 13.3369 138.468 14.0542 138.468 16.7254C138.468 19.3967 136.101 20.9797 132.896 20.9797C129.419 20.9797 127.496 19.6688 127.422 16.7502Z" fill="#1B1B1B" fill-opacity="0.55"/>
<path d="M76.6273 12.8916C76.6273 10.814 77.6136 9.6762 79.1423 9.6762C80.3997 9.6762 81.1148 10.4677 81.1148 12.1744V20.6829H84.5912V11.6302C84.5912 8.56316 82.8654 7.15332 80.3504 7.15332C78.6491 7.15332 77.2438 8.01901 76.6273 9.15678V7.45013H73.1016V20.6829H76.6273V12.8916Z" fill="#1B1B1B" fill-opacity="0.55"/>
</g>
<defs>
<clipPath id="clip0_6193_17107">
<rect width="138.67" height="24.1866" fill="white"/>
</clipPath>
</defs>
</svg>
