<svg width="145" height="30" viewBox="0 0 145 30" fill="none" xmlns="http://www.w3.org/2000/svg">
<g clip-path="url(#clip0_6193_16656)">
<path d="M74.2663 16.8336C74.2663 23.9127 80.1358 29.0908 87.5926 29.0908C95.049 29.0908 100.925 23.9127 100.925 16.8336V0.569655H93.7048V15.9951C93.7048 19.8163 91.0549 22.3893 87.5731 22.3893C84.0912 22.3893 81.4414 19.8291 81.4414 15.9951V0.569655H74.2216L74.2663 16.8336ZM120.217 7.07906H128.831V28.5531H136.051V7.07906H144.667V0.556853H120.217V7.07906ZM115.55 0.556853H108.331V28.5531H115.55V0.556853ZM45.0987 7.07906H53.7139V28.5531H60.9338V7.07906H69.5426V0.556853H45.0987V7.07906ZM7.21988 0.556853H0V28.5531H7.21988V0.556853ZM41.2968 12.2508C41.2968 5.17169 35.4274 0 27.9643 0C20.5011 0 14.6318 5.17169 14.6318 12.2508V28.5531H21.8517V13.1277C21.8517 9.30651 24.5016 6.73345 27.9835 6.73345C31.4654 6.73345 34.1153 9.29371 34.1153 13.1277V28.5531H41.3351L41.2903 12.2508H41.2968Z" fill="#1B1B1B" fill-opacity="0.55"/>
</g>
<defs>
<clipPath id="clip0_6193_16656">
<rect width="144.667" height="29.0908" fill="white"/>
</clipPath>
</defs>
</svg>
