<svg width="155" height="35" viewBox="0 0 155 35" fill="none" xmlns="http://www.w3.org/2000/svg">
<g clip-path="url(#clip0_6193_11567)">
<path d="M150.264 25.8521C149.683 25.8542 149.109 25.971 148.573 26.1956C148.037 26.4202 147.55 26.7483 147.141 27.1611C146.732 27.5739 146.409 28.0633 146.189 28.6012C145.97 29.1392 145.858 29.7152 145.862 30.2963C145.858 30.8773 145.97 31.4533 146.189 31.9913C146.409 32.5293 146.732 33.0187 147.141 33.4315C147.55 33.8443 148.037 34.1724 148.573 34.397C149.109 34.6216 149.683 34.7383 150.264 34.7405C152.693 34.7405 154.667 32.7497 154.667 30.2963C154.671 29.7152 154.559 29.1392 154.34 28.6012C154.12 28.0633 153.797 27.5739 153.388 27.1611C152.979 26.7483 152.492 26.4202 151.956 26.1956C151.421 25.971 150.846 25.8542 150.264 25.8521ZM135.775 22.4198C135.775 19.0577 132.93 16.3359 129.419 16.3359C125.908 16.3359 123.062 19.0618 123.062 22.4198C123.062 25.7777 125.912 28.4996 129.423 28.4996C132.934 28.4996 135.775 25.7777 135.775 22.4198ZM135.8 10.5947H142.813V34.2407H135.8V32.729C133.755 34.1404 131.329 34.8954 128.845 34.8933C122.017 34.8933 116.483 29.3091 116.483 22.4198C116.483 15.5304 122.017 9.94627 128.845 9.94627C131.426 9.94627 133.818 10.7434 135.8 12.1106V10.5947ZM79.6611 13.6759V10.5989H72.4785V34.2407H79.6777V23.2004C79.6777 19.4749 83.6758 17.4758 86.4513 17.4758H86.534V10.5989C83.6841 10.5989 81.0696 11.8297 79.6611 13.6759ZM61.7687 22.4198C61.7687 19.0577 58.9229 16.3359 55.4121 16.3359C51.9014 16.3359 49.0556 19.0618 49.0556 22.4198C49.0556 25.7777 51.9055 28.4996 55.4163 28.4996C58.927 28.4996 61.7687 25.7777 61.7687 22.4198ZM61.7934 10.5947H68.8108V34.2407H61.7934V32.729C59.8109 34.092 57.4195 34.8933 54.838 34.8933C48.0106 34.8933 42.476 29.3091 42.476 22.4198C42.476 15.5304 48.0106 9.94627 54.838 9.94627C57.4195 9.94627 59.8109 10.7434 61.7934 12.1106V10.5947ZM104.018 9.96279C101.217 9.96279 98.5655 10.8384 96.7895 13.2588V10.5989H89.8052V34.2407H96.8762V21.8168C96.8762 18.2234 99.2635 16.4598 102.142 16.4598C105.224 16.4598 107 18.3184 107 21.7672V34.2407H114.005V19.2064C114.005 13.7048 109.668 9.96279 104.018 9.96279ZM32.2577 34.2407H39.6013V0.0624632H32.2577V34.2407ZM0 34.249H7.77736V0.0541992H0.00413L0 34.249ZM27.2022 0.0541992C27.2022 7.4557 24.344 14.345 19.2472 19.4625L29.9943 34.249H20.3913L8.71494 18.1821L11.7301 15.9022C14.1846 14.0561 16.1733 11.6615 17.5374 8.9098C18.9014 6.15806 19.6029 3.12542 19.5859 0.0541992H27.1939H27.2022Z" fill="#1B1B1B" fill-opacity="0.55"/>
</g>
<defs>
<clipPath id="clip0_6193_11567">
<rect width="154.67" height="34.9295" fill="white"/>
</clipPath>
</defs>
</svg>
