<svg width="67" height="32" viewBox="0 0 67 32" fill="none" xmlns="http://www.w3.org/2000/svg">
<path fill-rule="evenodd" clip-rule="evenodd" d="M34.3721 3.66561V5.23237H31.8207V3.66561H29.8886V1.59624H31.8207V0H34.3721V1.59624H36.3401V3.66561H34.3721ZM22.2512 5.59075C22.8096 5.85317 23.2736 6.2295 23.5971 6.68237C23.9178 7.13295 24.0899 7.65318 24.0899 8.1737C24.0899 8.69422 23.9182 9.21445 23.5971 9.66503C23.2736 10.118 22.8096 10.4944 22.2512 10.7569C21.6957 11.0171 21.0539 11.1564 20.4121 11.1564C19.7707 11.1564 19.129 11.0171 18.5734 10.7569C18.015 10.4945 17.551 10.118 17.2275 9.66503C16.9068 9.21445 16.7347 8.69422 16.7347 8.1737C16.7347 7.65318 16.9065 7.13295 17.2275 6.68237C17.5511 6.2295 18.0151 5.85317 18.5734 5.59075C19.1293 5.33064 19.7707 5.19133 20.4121 5.19133C21.0539 5.19133 21.6957 5.33064 22.2512 5.59075ZM30.6227 5.59075C31.1786 5.85087 31.6479 6.23179 31.9689 6.68237C32.2896 7.13295 32.4614 7.65318 32.4614 8.1737C32.4614 8.69422 32.2896 9.21445 31.9689 9.66503C31.6454 10.1181 31.1812 10.4945 30.6227 10.7569C30.0671 11.0171 29.4254 11.1564 28.784 11.1564C28.1426 11.1564 27.5008 11.0171 26.9453 10.7569C26.3868 10.4945 25.9228 10.118 25.5994 9.66503C25.2787 9.21445 25.1065 8.69422 25.1065 8.1737C25.1065 7.65318 25.2783 7.13295 25.5994 6.68237C25.9201 6.2315 26.3897 5.85087 26.9453 5.59075C27.5008 5.33064 28.1426 5.19133 28.784 5.19133C29.4254 5.19133 30.0668 5.33064 30.6227 5.59075ZM38.9941 5.59075C39.5525 5.85317 40.0165 6.2295 40.34 6.68237C40.6607 7.13295 40.8328 7.65318 40.8328 8.1737C40.8328 8.69422 40.6611 9.21445 40.34 9.66503C40.0164 10.1179 39.5524 10.4943 38.9941 10.7569C38.4344 11.0178 37.8003 11.1555 37.1547 11.1564C36.5137 11.1564 35.8719 11.0171 35.3167 10.7569C34.7579 10.4948 34.2938 10.1183 33.9708 9.66503C33.6494 9.21445 33.478 8.69422 33.478 8.1737C33.478 7.65318 33.6494 7.13295 33.9708 6.68237C34.294 6.22925 34.7581 5.85284 35.3167 5.59075C35.876 5.32988 36.5096 5.19219 37.1547 5.19133C37.7961 5.19133 38.4379 5.33064 38.9941 5.59075ZM47.3652 5.59075C47.9236 5.85317 48.3876 6.2295 48.7111 6.68237C49.0318 7.13295 49.2039 7.65318 49.2039 8.1737C49.2039 8.69422 49.0322 9.21445 48.7111 9.66503C48.3875 10.1179 47.9235 10.4943 47.3652 10.7569C46.8057 11.0178 46.1719 11.1554 45.5265 11.1564C44.8848 11.1564 44.243 11.0171 43.6878 10.7569C43.1291 10.4948 42.6649 10.1183 42.3419 9.66503C42.0212 9.21445 41.8491 8.69422 41.8491 8.1737C41.8491 7.65318 42.0209 7.13295 42.3419 6.68237C42.6651 6.22925 43.1292 5.85284 43.6878 5.59075C44.2473 5.32979 44.8812 5.19209 45.5265 5.19133C46.1676 5.19133 46.809 5.33064 47.3652 5.59075ZM45.5989 15.2092V11.7061H20.5397V15.2092H45.5989ZM0 18.4017H6.39699V23.0442L11.8828 18.4017H18.6625L11.3052 24.628L20.1203 32H11.7553L6.39699 27.3844V32H0V18.4017ZM20.6851 18.4017H27.0821V28.2162H37.1601V32H20.6851V18.4017ZM38.8919 18.4017H49.7356L52.7791 25.4986L55.8226 18.4017H66.6667V32H60.2693V22.0988L56.0232 32H49.5353L45.2885 22.0988V32H38.8919V18.4017Z" fill="#1B1B1B" fill-opacity="0.55"/>
</svg>
