<svg width="119" height="30" viewBox="0 0 119 30" fill="none" xmlns="http://www.w3.org/2000/svg">
<g clip-path="url(#clip0_6193_17103)">
<path d="M112.724 25.3646H108.444V18.6613C108.444 17.0628 108.415 15.005 106.218 15.005C103.988 15.005 103.647 16.7466 103.647 18.5449V25.3642H99.3666V11.5793H103.476V13.4632H103.533C103.945 12.76 104.539 12.1816 105.253 11.7895C105.967 11.3973 106.774 11.2062 107.588 11.2364C111.926 11.2364 112.726 14.0901 112.726 17.8025L112.724 25.3646ZM94.5369 9.69502C94.0456 9.69511 93.5653 9.54951 93.1567 9.27663C92.7482 9.00376 92.4297 8.61587 92.2417 8.16201C92.0536 7.70815 92.0043 7.20871 92.1 6.72684C92.1958 6.24497 92.4323 5.80232 92.7796 5.45487C93.127 5.10741 93.5695 4.87075 94.0514 4.77482C94.5332 4.67889 95.0327 4.72799 95.4866 4.91592C95.9405 5.10384 96.3285 5.42216 96.6015 5.8306C96.8745 6.23904 97.0203 6.71927 97.0204 7.21056C97.0205 7.53677 96.9563 7.85979 96.8315 8.16119C96.7067 8.46258 96.5238 8.73645 96.2932 8.96715C96.0626 9.19786 95.7888 9.38088 95.4874 9.50576C95.1861 9.63065 94.8631 9.69496 94.5369 9.69502ZM96.6771 25.3646H92.3922V11.5793H96.6771V25.3646ZM114.858 0.751967H90.2412C89.6825 0.745662 89.1441 0.96144 88.7444 1.35189C88.3447 1.74233 88.1163 2.2755 88.1095 2.83423V27.5535C88.1161 28.1125 88.3443 28.646 88.744 29.0369C89.1437 29.4277 89.6822 29.6439 90.2412 29.638H114.858C115.418 29.645 115.958 29.4294 116.36 29.0386C116.761 28.6477 116.991 28.1136 116.999 27.5535V2.83245C116.991 2.27261 116.761 1.73884 116.359 1.3484C115.958 0.957962 115.418 0.7428 114.858 0.750184M76.459 14.9065C74.3188 14.9065 73.0347 16.3355 73.0347 18.4178C73.0347 20.5001 74.3183 21.9305 76.459 21.9305C78.5997 21.9305 79.8865 20.5036 79.8865 18.4178C79.8865 16.332 78.6019 14.9065 76.459 14.9065ZM83.8272 25.3566H79.8865V23.5285H79.8281C79.3337 24.1934 78.6925 24.7353 77.9544 25.1118C77.2162 25.4883 76.4011 25.6892 75.5726 25.699C71.4598 25.699 68.7506 22.7308 68.7506 18.5333C68.7506 14.6782 71.1481 11.1383 75.0893 11.1383C76.8608 11.1383 78.5154 11.623 79.4861 12.9665H79.5423V5.02039H83.8268L83.8272 25.3566ZM63.2547 16.8635C63.2629 16.5162 63.2005 16.1709 63.0713 15.8484C62.9421 15.526 62.7488 15.2331 62.5031 14.9876C62.2574 14.742 61.9644 14.5489 61.6418 14.4199C61.3193 14.2909 60.9739 14.2288 60.6267 14.2372C59.8787 14.1907 59.1425 14.4399 58.5767 14.9312C58.0108 15.4225 57.6607 16.1164 57.6018 16.8635H63.2547ZM66.8806 22.972C66.1693 23.8346 65.2751 24.5282 64.2627 25.0025C63.2503 25.4769 62.1451 25.7201 61.0271 25.7147C56.7466 25.7147 53.3195 22.8574 53.3195 18.433C53.3195 14.0085 56.7461 11.1526 61.0271 11.1526C65.028 11.1526 67.5369 14.0062 67.5369 18.433V19.7751H57.6018C57.7255 20.5362 58.1201 21.227 58.7129 21.7202C59.3057 22.2134 60.0568 22.4757 60.8277 22.4588C61.437 22.4551 62.0357 22.299 62.5692 22.0047C63.1027 21.7105 63.5542 21.2875 63.8825 20.7743L66.8806 22.972ZM24.3283 11.5757H28.4389V13.4596H28.4973C28.9079 12.7562 29.5018 12.1775 30.2157 11.7853C30.9295 11.3931 31.7365 11.2022 32.5504 11.2329C36.891 11.2329 37.6901 14.0887 37.6901 17.7989V25.3584H33.4096V18.6563C33.4096 17.0565 33.3802 15.0001 31.1802 15.0001C28.9552 15.0001 28.6119 16.7422 28.6119 18.54V25.3566H24.3314L24.3283 11.5757ZM39.8606 5.02173H44.1411V17.1787L48.9923 11.5682H54.2403L48.6222 17.9501L54.1221 25.3651H48.7421L44.1981 18.5511H44.142V25.3642H39.8615L39.8606 5.02173ZM17.6744 11.5744H21.9549V25.3593H17.6744V11.5744ZM19.8146 4.72121C20.3057 4.7213 20.7858 4.867 21.1941 5.1399C21.6024 5.41281 21.9206 5.80065 22.1084 6.25438C22.2963 6.70812 22.3454 7.20738 22.2496 7.68903C22.1537 8.17068 21.9172 8.61308 21.5699 8.96031C21.2226 9.30753 20.7801 9.54398 20.2985 9.63976C19.8168 9.73553 19.3176 9.68633 18.8639 9.49838C18.4101 9.31042 18.0224 8.99216 17.7495 8.58382C17.4767 8.17548 17.3311 7.69542 17.3311 7.20432C17.3311 6.8782 17.3953 6.55527 17.5201 6.25397C17.645 5.95268 17.8279 5.67892 18.0585 5.44834C18.2892 5.21775 18.5629 5.03486 18.8643 4.91009C19.1656 4.78533 19.4885 4.72115 19.8146 4.72121ZM3 5.02485H7.4557V21.2549H15.7045V25.3669H3V5.02485Z" fill="#1B1B1B" fill-opacity="0.55"/>
</g>
<defs>
<clipPath id="clip0_6193_17103">
<rect width="118.499" height="29.9996" fill="white"/>
</clipPath>
</defs>
</svg>
