<svg width="207" height="47" viewBox="0 0 207 47" fill="none" xmlns="http://www.w3.org/2000/svg">
<path fill-rule="evenodd" clip-rule="evenodd" d="M201.006 19.1787H186.675C188.556 11.9568 190.256 5.83252 190.256 5.83252C190.256 5.83252 183.808 12.8711 178.076 19.1787H121.291C120.934 19.1787 120.934 19.362 121.291 19.362C121.471 19.362 177 20.3669 177 20.3669C172.522 25.2113 170.104 27.9543 170.016 28.0459C169.837 28.2292 170.016 28.3208 170.194 28.1375C170.283 28.0459 173.51 25.028 178.076 20.3669L185.152 20.4585C184.703 22.561 184.347 24.4802 183.808 26.7661C175.121 31.5199 160.97 39.2895 160.97 39.2895C160.79 39.3812 160.88 39.5645 161.06 39.4728C161.15 39.3812 174.315 32.6164 183.539 27.8626C182.017 34.9012 181.033 39.7446 181.033 39.8362C180.943 39.9278 181.123 40.0195 181.212 39.8362C181.212 39.7446 182.554 34.9012 184.526 27.4044C192.764 23.1098 201.006 19.1787 201.006 19.1787ZM179.24 19.1787C183.539 14.882 187.122 11.408 187.122 11.408C187.122 11.408 186.496 14.4248 185.421 19.1787H179.24ZM186.317 20.4596L194.914 20.6418C194.914 20.6418 190.616 23.0182 184.794 26.2172C185.331 24.2064 185.778 22.4704 186.317 20.4596Z" fill="#1B1B1B" fill-opacity="0.55"/>
<path fill-rule="evenodd" clip-rule="evenodd" d="M7.00889 23.476H9.51582L8.53122 28.2299H10.8596L10.5015 30.0564H5.66406L7.00889 23.476ZM19.5467 23.3844C21.7863 23.3844 22.5924 24.7558 22.1445 26.7667C21.6965 28.7776 20.3538 30.1491 18.1142 30.1491C15.9643 30.1491 15.1582 28.7776 15.6062 26.7667C15.9654 24.7558 17.3979 23.3844 19.5467 23.3844ZM18.4723 28.5016C18.9202 28.5016 19.1896 28.2288 19.5467 26.7657C19.8161 25.3025 19.6365 25.0276 19.1886 25.0276C18.8304 25.0276 18.4712 25.3025 18.204 26.7657C17.8448 28.2299 18.1142 28.5016 18.4723 28.5016ZM32.713 27.5883C32.3549 29.4181 30.8326 30.148 29.2205 30.148C26.9808 30.148 26.2646 28.7765 26.7125 26.7657C27.0706 24.6631 28.5032 23.3833 30.653 23.3833C32.2651 23.3833 33.5191 24.0227 33.0712 25.943H30.7428C30.9224 25.2098 30.653 25.0276 30.3847 25.0276C29.6674 25.0276 29.4888 25.7608 29.3103 26.7657C29.0409 27.7706 28.9521 28.5016 29.5786 28.5016C29.9367 28.5016 30.2061 28.3204 30.3847 27.5883H32.713ZM39.0728 23.476H41.491L40.9533 26.3085L42.8348 23.476H45.5213L43.1929 26.5834L44.3571 30.0564H41.6695L40.7737 27.1322L40.1472 30.0564H37.729L39.0728 23.476ZM53.4033 27.5883H52.3279L51.88 30.0564H49.372L50.7158 23.476H53.2238L52.7758 25.6691H53.8502L54.2992 23.476H56.8061L55.4623 30.0564H52.9544L53.4033 27.5883ZM62.5384 23.476H67.3758L67.0166 25.2119H64.5984L64.4188 25.944H66.6585L66.3003 27.5883H64.0607L63.8821 28.3215H66.3901L66.0309 30.0564H61.1058L62.5384 23.476ZM73.1967 23.476H78.0331L77.675 25.2119H75.2568L75.0772 25.944H77.3168L77.0485 27.5883H74.7191L74.6293 28.3215H77.1383L76.7791 30.0564H71.853L73.1967 23.476ZM83.8551 23.476H86.8998C89.4078 23.476 89.9455 24.9391 89.5873 26.8584C89.1394 28.7776 87.6171 30.0574 85.6468 30.0574H82.5124L83.8551 23.476ZM85.2877 28.5016H85.556C86.0039 28.5016 86.2723 28.4099 86.4518 28.1371C86.7202 27.8622 86.81 27.404 86.9896 26.7657C87.0794 26.1241 87.1681 25.6691 86.9896 25.3942C86.8998 25.1192 86.7212 25.0276 86.2723 25.0276H86.0937L85.2877 28.5016ZM106.067 25.3942L104.186 30.0564H101.857L101.947 25.3942L100.962 30.0564H98.8121L100.156 23.476H103.649L103.559 27.405L105.082 23.476H108.575L107.231 30.0564H105.082L106.067 25.3942ZM115.562 23.476H118.786L119.502 30.0574H116.905L116.815 28.9609H115.024L114.575 30.0574H112.159L115.562 23.476ZM116.814 27.405V24.9391L115.739 27.405H116.814ZM126.309 23.476H130.072C131.414 23.476 132.132 23.9321 131.863 25.1203C131.683 25.944 131.324 26.4918 130.25 26.6751V26.7667C130.878 26.7667 131.146 27.0417 131.146 27.5883C131.234 28.1382 130.967 29.0515 131.057 30.0564H128.638C128.549 29.5086 128.638 28.6849 128.728 28.1371C128.728 27.8622 128.549 27.6789 128.19 27.6789H127.832L127.383 30.0553H124.875L126.309 23.476ZM128.369 26.2168C128.908 26.2168 129.264 26.0336 129.354 25.5775C129.444 25.1192 129.174 25.0276 128.637 25.0276H128.458L128.188 26.2158L128.369 26.2168ZM138.849 25.3036H137.326L137.684 23.476H143.327L142.968 25.3036H141.445L140.46 30.0564H137.863L138.849 25.3036ZM148.97 23.476H151.475L150.134 30.0564H147.626L148.97 23.476ZM157.477 23.476H160.522L161.061 27.405L161.955 23.476H163.926L162.582 30.0564H159.537L159.088 26.0336H158.998L158.193 30.0564H156.133L157.477 23.476Z" fill="#1B1B1B" fill-opacity="0.55"/>
</svg>
