<svg width="52" height="26" viewBox="0 0 52 26" fill="none" xmlns="http://www.w3.org/2000/svg">
<path d="M15.1984 13.5082L20.2108 0H16.8975L14.6037 5.86203L15.1134 0H11.6302L6.61771 13.5082H9.84607L12.3098 6.96647L11.885 13.3382L15.1984 13.5082ZM19.1064 13.5082L24.1189 0H20.9754L15.878 13.5082H19.1064ZM28.1968 12.6586L28.0269 5.86203L32.7845 0.339828L28.1968 12.6586ZM51.3051 7.901L35.1633 12.0639L35.588 10.7895H32.1898L33.2942 7.56117H36.1827L37.0323 5.09742L34.1438 5.26733L35.1633 2.54871H37.9668L38.9014 0.084957H29.811L26.4976 3.99298L28.1118 0H24.8835L19.871 13.5082H23.1843L25.3082 7.73109V13.5082H29.5561L14.3488 17.5011C12.7629 17.9542 11.3469 18.1525 10.1009 18.0958C8.85488 18.0392 7.89206 17.6993 7.21241 17.0764C5.68318 15.9436 5.14506 14.2161 5.59822 11.894C5.88139 10.3648 6.50438 8.89219 7.46728 7.47622C5.20173 9.85501 3.53088 11.8657 2.45482 13.5082C1.26542 15.264 0.500805 16.9914 0.160977 18.6905C-0.178851 20.3897 0.0193536 21.7773 0.755676 22.8534C2.73798 26.1385 7.07078 26.365 13.7541 23.5331L51.3051 7.901Z" fill="#1B1B1B" fill-opacity="0.55"/>
</svg>
