<svg width="171" height="11" viewBox="0 0 171 11" fill="none" xmlns="http://www.w3.org/2000/svg">
<g clip-path="url(#clip0_6193_17092)">
<path fill-rule="evenodd" clip-rule="evenodd" d="M30.8156 8.34281H7.28052C5.17347 8.34281 4.23657 7.39479 4.23657 5.35907V0.81594H0.585938V5.35907C0.585938 8.29957 3.13424 9.91913 5.56624 9.91913H30.8156V8.34281ZM68.8035 0.81594V8.34281H47.2884C45.1814 8.34281 44.2445 7.39479 44.2445 5.35907V0.81594H40.5927V5.35907C40.5927 8.29957 43.141 9.91913 45.5742 9.91913H72.4553V0.81594H68.8035ZM113.782 8.34281H88.9708C86.8638 8.34281 85.9269 7.39479 85.9269 5.35907C85.9269 3.30756 86.8638 2.39226 88.9708 2.39226H113.782V0.81594H87.2566C84.824 0.81594 82.2751 2.42909 82.2751 5.35907C82.2751 8.29957 84.8234 9.91913 87.2566 9.91913H113.782V8.34281ZM165.103 0.81594C167.534 0.81594 170.084 2.42909 170.084 5.35907C170.084 8.29957 167.535 9.91913 165.103 9.91913H137.86V0.81594H165.103ZM166.432 5.35907C166.432 3.30756 165.496 2.39226 163.388 2.39226H141.512V8.3422H163.388C165.496 8.3422 166.432 7.39479 166.432 5.35907ZM124.041 10.1664H127.596V0.584473H124.041V10.1664Z" fill="#1B1B1B" fill-opacity="0.55"/>
</g>
<defs>
<clipPath id="clip0_6193_17092">
<rect width="170.667" height="10.7508" fill="white"/>
</clipPath>
</defs>
</svg>
