<svg width="73" height="50" viewBox="0 0 73 50" fill="none" xmlns="http://www.w3.org/2000/svg">
<path d="M70.2793 29.467H63.8594V2.25732H70.2793V29.467Z" fill="#1B1B1B" fill-opacity="0.55"/>
<path d="M19.5748 9.9674L15.8998 29.4747L11.4074 29.4672L7.71743 9.9674V29.4672H2.25V2.2575L10.4324 2.25L13.6499 19.2748L16.8598 2.2575H25.0347V29.4747H19.5748V9.9674Z" fill="#1B1B1B" fill-opacity="0.55"/>
<path d="M44.8892 22.6647C44.8892 27.3672 41.0567 30.0897 36.3543 30.0897C31.6518 30.0897 27.8194 27.3597 27.8194 22.6572L27.7969 2.25H34.2168L34.2318 22.5448C34.2318 23.7072 35.1918 24.6522 36.3543 24.6522C37.5168 24.6522 38.4767 23.7072 38.4767 22.5448L38.4917 2.25H44.9117L44.8892 22.6647Z" fill="#1B1B1B" fill-opacity="0.55"/>
<path d="M61.0842 23.5122C61.0842 27.6222 57.7392 30.1197 53.6368 30.1197C49.5343 30.1197 46.1969 27.6222 46.1969 23.5122C46.1819 22.4848 46.1894 20.9773 46.1894 19.5373H51.8968V23.5122C51.8968 24.2772 52.5193 24.8997 53.2843 24.8997C54.0493 24.8997 54.6793 24.2772 54.6793 23.5122V2.25H61.1067L61.0917 23.5047" fill="#1B1B1B" fill-opacity="0.55"/>
<path d="M19.6339 42.4872H20.8714V40.7022H19.4539V39.3897H21.3364V37.6047H19.4539V36.2022H20.7139V34.3498H12.6065C12.7565 34.1398 12.8915 33.9373 13.0115 33.7348L11.099 32.8423C10.5965 33.5998 9.95904 34.3798 9.20905 35.1373C8.82655 35.5198 8.42906 35.8722 8.03906 36.1947L9.72654 37.3497C9.91404 37.1997 10.109 37.0347 10.2965 36.8697V37.5972H8.42906V39.3822H10.2965V40.6947H8.99905V42.4797H10.2665C9.80154 43.3872 9.03655 44.4446 8.46656 44.9546L10.1015 46.1996C10.904 45.4346 11.654 44.3771 12.224 43.1247L10.964 42.4797H19.1314L17.8189 43.2522C18.4564 44.1071 19.2064 45.1871 19.6414 46.0871L21.4414 45.1796C21.0589 44.3696 20.3239 43.2297 19.6414 42.4872M17.4739 40.7022H16.9715V39.3897H17.4739V40.7022ZM14.6165 39.3897H15.1415V40.7022H14.6165V39.3897ZM15.1415 37.6047H14.6165V36.2022H15.1415V37.6047ZM17.4739 37.6047H16.9715V36.2022H17.4739V37.6047ZM12.2765 36.2022H12.794V37.6047H12.2765V36.2022ZM12.2765 39.3897H12.794V40.7022H12.2765V39.3897Z" fill="#1B1B1B" fill-opacity="0.55"/>
<path d="M35.5405 34.5824H29.4956V34.8899L28.2206 33.7124C27.2006 34.3199 25.6256 34.8224 23.8256 35.0474C23.8031 35.0474 23.7881 35.0474 23.7656 35.0474V45.5098H25.8956V44.8273H29.1581V42.7348H25.8956V40.3048H29.1581V38.3248H25.8956V36.6149C27.3131 36.3374 28.5581 35.9249 29.4881 35.4374V46.2072H31.648V36.5849H33.373V42.7423H31.963L32.683 44.9548H33.748C34.7305 44.9548 35.533 44.1973 35.533 43.2673V34.5749" fill="#1B1B1B" fill-opacity="0.55"/>
<path d="M46.6599 43.0871C46.8324 42.9296 47.0049 42.7646 47.1774 42.5921C47.7624 42.0146 48.2649 41.4146 48.6624 40.8596L48.0774 40.2896V34.6572H44.4999V32.9922H42.1749V34.6572H38.515V43.822C38.515 43.822 38.515 43.822 38.5075 43.822C38.0575 43.9195 37.6225 44.0095 37.1875 44.092L37.63 46.282C37.855 46.2295 38.0875 46.177 38.32 46.1245C40.2925 45.652 42.0924 45.0895 43.5099 44.512V43.1546C44.8149 44.542 46.6599 45.742 48.7299 46.432L49.8623 44.5345C48.6174 44.1295 47.5449 43.6421 46.6674 43.0871M45.7674 38.8571H40.7575V38.3846H45.7674V38.8571ZM46.1124 40.7171C45.9474 40.9271 45.7749 41.1371 45.5874 41.3471C45.4374 41.5196 45.2874 41.6771 45.1299 41.8346C44.7999 41.4821 44.5299 41.1071 44.3199 40.7096H46.1049L46.1124 40.7171ZM40.765 36.4346H45.7749V36.9221H40.765V36.4346ZM40.765 43.2821V40.7171H41.8599C42.1224 41.3471 42.5124 41.9846 43.0149 42.5921C42.3249 42.8321 41.5749 43.0646 40.765 43.2821Z" fill="#1B1B1B" fill-opacity="0.55"/>
<path d="M61.1087 33.96H53.5938V39.2999H61.1087V33.96ZM55.6712 35.7224H59.0387V37.4699H55.6712V35.7224Z" fill="#1B1B1B" fill-opacity="0.55"/>
<path d="M51.2109 39.937V46.2144H53.2809V45.7644H54.9234V46.2144H56.9934V39.937H51.2109ZM54.9234 43.9945H53.2809V41.7895H54.9234V43.9945Z" fill="#1B1B1B" fill-opacity="0.55"/>
<path d="M63.5052 39.937H57.6328V46.2144H59.7478V45.7644H61.3903V46.2144H63.5052V39.937ZM61.3903 43.9945H59.7478V41.7895H61.3903V43.9945Z" fill="#1B1B1B" fill-opacity="0.55"/>
</svg>
