<svg width="95" height="33" viewBox="0 0 95 33" fill="none" xmlns="http://www.w3.org/2000/svg">
<path d="M85.0519 13.2211C86.1852 13.2211 87.1039 12.3024 87.1039 11.1691C87.1039 10.0359 86.1852 9.11719 85.0519 9.11719C83.9187 9.11719 83 10.0359 83 11.1691C83 12.3024 83.9187 13.2211 85.0519 13.2211Z" fill="#1B1B1B" fill-opacity="0.55"/>
<path d="M55.7513 19.919C56.758 19.919 57.3387 19.1641 57.3 18.4285C57.2806 18.0413 57.2419 17.7897 57.2032 17.5961C56.5837 14.9247 54.4156 12.9502 51.841 12.9502C48.7825 12.9502 46.3047 15.7184 46.3047 19.1254C46.3047 22.5324 48.7825 25.3005 51.841 25.3005C53.7575 25.3005 55.1319 24.6037 56.1191 23.5002C56.6031 22.9582 56.5063 22.1258 55.9256 21.7193C55.4416 21.3902 54.8415 21.5064 54.3963 21.8742C53.9704 22.242 53.1574 22.9776 51.841 22.9776C50.2924 22.9776 48.9761 21.6419 48.6857 19.8803H55.7513V19.919ZM51.8217 15.2925C53.2155 15.2925 54.4156 16.3765 54.8609 17.8671H48.7825C49.2277 16.3572 50.4279 15.2925 51.8217 15.2925Z" fill="#1B1B1B" fill-opacity="0.55"/>
<path d="M46.4175 14.1699C46.4175 13.5892 45.9916 13.1246 45.4496 13.0278C43.7654 12.7761 42.1781 13.3956 41.2683 14.5377V14.3828C41.2683 13.6666 40.6875 13.2214 40.1068 13.2214C39.468 13.2214 38.9453 13.744 38.9453 14.3828V23.8682C38.9453 24.4877 39.4099 25.0297 40.0294 25.0684C40.7069 25.1071 41.2683 24.5845 41.2683 23.9069V19.0094C41.2683 16.8413 42.8943 15.0604 45.1398 15.312C45.2173 15.312 45.2947 15.312 45.3721 15.312C45.9529 15.2733 46.4175 14.77 46.4175 14.1699Z" fill="#1B1B1B" fill-opacity="0.55"/>
<path d="M86.2214 15.409C86.2214 14.7702 85.6987 14.2476 85.0599 14.2476C84.4211 14.2476 83.8984 14.7702 83.8984 15.409C83.8984 15.4477 83.8984 23.5393 83.8984 23.9071C83.8984 24.546 84.4211 25.0686 85.0599 25.0686C85.6987 25.0686 86.2214 24.546 86.2214 23.9071C86.2214 23.5587 86.2214 15.4671 86.2214 15.409Z" fill="#1B1B1B" fill-opacity="0.55"/>
<path d="M68.9461 8.98179C68.9461 8.34298 68.4234 7.82031 67.7846 7.82031C67.1458 7.82031 66.6231 8.34298 66.6231 8.98179V14.1503C65.8294 13.3567 64.8422 12.9695 63.6614 12.9695C60.6028 12.9695 58.125 15.7377 58.125 19.1447C58.125 22.5517 60.6028 25.3199 63.6614 25.3199C64.8422 25.3199 65.8488 24.9133 66.6425 24.1197C66.7393 24.6617 67.2232 25.0682 67.7846 25.0682C68.4234 25.0682 68.9461 24.5455 68.9461 23.9067V8.98179ZM63.6807 23.0163C61.8998 23.0163 60.4673 21.2934 60.4673 19.1447C60.4673 17.0153 61.8998 15.2731 63.6807 15.2731C65.4616 15.2731 66.8941 16.996 66.8941 19.1447C66.8941 21.2934 65.4423 23.0163 63.6807 23.0163Z" fill="#1B1B1B" fill-opacity="0.55"/>
<path d="M81.0711 8.98179C81.0711 8.34298 80.5484 7.82031 79.9096 7.82031C79.2708 7.82031 78.7481 8.34298 78.7481 8.98179V14.1503C77.9544 13.3567 76.9672 12.9695 75.7864 12.9695C72.7278 12.9695 70.25 15.7377 70.25 19.1447C70.25 22.5517 72.7278 25.3199 75.7864 25.3199C76.9672 25.3199 77.9738 24.9133 78.7675 24.1197C78.8643 24.6617 79.3482 25.0682 79.9096 25.0682C80.5484 25.0682 81.0711 24.5455 81.0711 23.9067V8.98179ZM75.7864 23.0163C74.0054 23.0163 72.5729 21.2934 72.5729 19.1447C72.5729 17.0153 74.0054 15.2731 75.7864 15.2731C77.5673 15.2731 78.9998 16.996 78.9998 19.1447C78.9998 21.2934 77.5673 23.0163 75.7864 23.0163Z" fill="#1B1B1B" fill-opacity="0.55"/>
<path d="M92.0999 23.9258V15.2921H93.1259C93.6679 15.2921 94.1518 14.8856 94.1905 14.3243C94.2293 13.7242 93.7453 13.2209 93.1646 13.2209H92.0999V11.5948C92.0999 10.9753 91.6353 10.4333 91.0158 10.3946C90.3383 10.3559 89.7769 10.8785 89.7769 11.5561V13.2402H88.809C88.267 13.2402 87.7831 13.6467 87.7444 14.2081C87.7056 14.8082 88.1896 15.3115 88.7703 15.3115H89.7576V23.9451C89.7576 24.5839 90.2802 25.1066 90.9191 25.1066C91.5966 25.0679 92.0999 24.5646 92.0999 23.9258Z" fill="#1B1B1B" fill-opacity="0.55"/>
<path d="M16.2217 0C25.1807 0 32.4432 7.26267 32.4434 16.2217C32.4434 25.1808 25.1808 32.4434 16.2217 32.4434C7.26267 32.4432 0 25.1807 0 16.2217C0.000129879 7.26275 7.26275 0.000129888 16.2217 0ZM22.9971 6.42676C22.3391 6.42676 21.7584 6.81388 21.4873 7.375L17.5576 6.54297C17.4415 6.52361 17.3245 6.54251 17.2471 6.60059C17.1503 6.65867 17.0926 6.75596 17.0732 6.87207L15.873 12.5244C13.3565 12.6018 11.0917 13.3573 9.44629 14.5381C9.02042 14.1316 8.43959 13.8799 7.80078 13.8799C6.48449 13.8799 5.43949 14.9443 5.43945 16.2412C5.43945 17.2091 6.02001 18.0218 6.83301 18.3896C6.79429 18.6219 6.77441 18.8548 6.77441 19.1064C6.77456 22.7456 11.0147 25.707 16.2412 25.707C21.4676 25.7069 25.7069 22.7649 25.707 19.1064C25.707 18.8742 25.6872 18.6219 25.6484 18.3896C26.4615 18.0218 27.043 17.1896 27.043 16.2217C27.0428 14.9055 25.9776 13.8604 24.6807 13.8604C24.0419 13.8604 23.461 14.1121 23.0352 14.5186C21.4091 13.3571 19.1828 12.6017 16.7051 12.5049L17.7891 7.43359L21.3125 8.18848C21.3512 9.07891 22.0873 9.79492 22.9971 9.79492C23.926 9.79476 24.6805 9.04024 24.6807 8.11133C24.6807 7.18225 23.9261 6.42692 22.9971 6.42676ZM19.6289 21.7578C19.8031 21.5841 20.074 21.5839 20.248 21.7578C20.4029 21.932 20.4029 22.2037 20.248 22.3779C19.0868 23.5391 16.8805 23.6162 16.2412 23.6162C15.583 23.6162 13.3755 23.52 12.2334 22.3779C12.0593 22.2037 12.0592 21.932 12.2334 21.7578C12.4076 21.5837 12.6793 21.5837 12.8535 21.7578C13.5891 22.4934 15.1378 22.7451 16.2412 22.7451C17.3446 22.7451 18.9127 22.4933 19.6289 21.7578ZM19.9385 16.2412C20.8675 16.2414 21.6221 16.9967 21.6221 17.9258C21.6219 18.8354 20.8674 19.6092 19.9385 19.6094C19.0094 19.6094 18.2541 18.8548 18.2539 17.9258C18.2539 16.9966 19.0093 16.2412 19.9385 16.2412ZM12.5049 16.2217C13.434 16.2217 14.1885 16.9771 14.1885 17.9062C14.1884 18.8353 13.434 19.5898 12.5049 19.5898C11.5758 19.6092 10.8204 18.8353 10.8203 17.9062C10.8203 16.9771 11.5757 16.2217 12.5049 16.2217Z" fill="#1B1B1B" fill-opacity="0.55"/>
</svg>
