<svg width="99" height="30" viewBox="0 0 99 30" fill="none" xmlns="http://www.w3.org/2000/svg">
<path d="M52.8052 2.1658C52.5069 2.1919 52.22 2.81675 51.6434 3.14223C51.2217 3.37716 50.6953 3.36247 50.4155 3.65288C50.3094 3.76137 50.3438 3.94654 50.2233 4.12437C49.9881 4.48002 49.159 4.51184 49.159 4.89931C49.1562 5.31778 49.8504 5.39773 50.4514 5.69465C50.9204 5.93366 50.9664 6.09843 51.5344 6.21427C52.0192 6.30808 52.7407 6.00137 53.3905 6.11149C53.924 6.20204 54.4347 6.26729 54.5552 6.5789C54.6613 6.86604 54.548 7.31143 53.9011 7.26004C53.6831 7.24617 52.7378 7.06507 51.576 7.13523C50.1746 7.22577 48.5752 7.48599 48.4189 8.37433C48.3328 8.87111 49.4129 9.4568 50.4557 9.3377C51.1772 9.25694 50.8358 8.77321 51.2288 8.53829C51.7438 8.23728 54.6613 9.58895 57.3737 9.58895C58.5155 9.58895 59.3647 9.42498 60.2081 8.92249C60.287 8.88416 60.3831 8.80177 60.505 8.79687C60.6197 8.80177 60.8206 8.86621 60.8865 8.89395C63.0711 9.8924 64.7221 11.895 72.7503 11.9187C73.8792 11.9219 75.1658 12.2287 76.2158 12.7736C77.1524 13.2663 77.7003 14.0322 78.2325 14.8096C79.0358 15.9761 80.4759 17.1108 82.659 18.3736C82.7781 18.4413 84.5753 19.2358 84.7188 19.2953C84.7417 19.3035 84.8737 19.4829 84.8278 19.5833C84.7747 20.3403 84.5811 22.5419 87.4671 22.6415C88.1728 22.6618 87.9877 22.3796 87.9877 22.1855C87.9863 21.8021 87.8629 21.4211 88.2187 21.0288C88.7049 20.4887 87.1873 20.2399 87.2318 19.0726C87.2634 18.2022 85.9782 18.3507 85.3255 17.6875C84.9497 17.3033 84.6155 17.0994 84.6399 16.6295C84.7862 13.9849 83.6502 12.2474 83.0836 11.8208C82.6418 11.4986 82.276 11.3705 82.6805 11.2212C85.0889 10.3166 85.6353 9.47475 85.6353 9.47475C86.9162 7.76253 88.0681 6.19877 89.6559 5.5103C89.9758 5.36836 90.7962 5.02004 91.2997 4.883C92.7814 4.48573 93.5617 4.2451 93.9921 4.0069C94.6734 3.62922 95.2113 2.84204 94.5586 2.36484C93.7468 1.77588 92.3425 2.24329 91.7229 2.45212C87.2949 3.94654 86.6423 6.58298 85.1089 8.09698C83.8854 9.30671 81.8959 10.195 80.1173 10.2676C78.7833 10.3239 77.3461 10.1706 75.9146 9.81327C72.4333 8.94533 70.5284 7.82452 70.0795 7.6263C69.1443 7.21599 61.8834 3.16262 56.001 2.99703C56.001 2.99703 55.2709 2.1658 55.0873 2.15193C54.657 2.12093 54.2167 2.64871 53.9011 2.70989C53.6042 2.76617 53.105 2.13806 52.8052 2.1658Z" fill="#1B1B1B" fill-opacity="0.55"/>
<path d="M26.906 26.3579C26.3523 26.3506 25.8819 26.092 25.8819 25.7722L25.8833 15.3374H19.8359V26.84C19.8359 27.4037 20.6392 27.8638 21.6246 27.8638H32.1946C33.1872 27.8638 33.9804 27.4037 33.9804 26.84V15.3374H27.9388L27.933 25.7722C27.933 26.092 27.4625 26.3506 26.906 26.3579Z" fill="#1B1B1B" fill-opacity="0.55"/>
<path d="M47.1569 15.3374H38.0042C36.9212 15.3374 36.0391 15.8383 36.0391 16.4607V27.8638H42.0922V17.4036C42.0965 17.0831 42.5526 16.8294 43.1149 16.8294C43.68 16.8294 44.1333 17.0774 44.1462 17.3947V27.8638H50.1749V17.3947C50.1821 17.0774 50.6353 16.8294 51.199 16.8294C51.7584 16.8294 52.2203 17.0831 52.2246 17.4036V27.8638H58.2777V16.4607C58.2777 15.8383 57.3941 15.3374 56.3112 15.3374H47.1569Z" fill="#1B1B1B" fill-opacity="0.55"/>
<path d="M11.7441 17.4257C11.7484 17.0774 11.2492 16.8294 10.7199 16.8294H9.69292V23.1652H10.7199C11.2535 23.1652 11.7484 22.9237 11.7441 22.577V17.4257ZM15.802 24.7159H9.69292V27.8638H3.64844V15.3374H15.8407C16.9322 15.3374 17.7843 15.8415 17.7843 16.4656V23.5877C17.7843 24.2126 16.8993 24.7159 15.802 24.7159Z" fill="#1B1B1B" fill-opacity="0.55"/>
<path d="M79.0181 25.0622C77.8032 25.0622 76.7833 25.6593 76.7833 26.3829C76.7833 27.1089 77.8032 27.7011 79.0568 27.7011C80.3004 27.7011 81.3073 27.1089 81.3073 26.3829C81.3073 25.6577 80.3004 25.0622 79.0568 25.0622H79.0181ZM81.7405 26.3788C81.7405 27.2296 80.5414 27.9214 79.0568 27.9214C77.5564 27.9214 76.3516 27.2345 76.3516 26.3788C76.3516 25.5394 77.5565 24.8379 79.0123 24.8379C80.5414 24.8379 81.7405 25.5182 81.7405 26.3788Z" fill="#1B1B1B" fill-opacity="0.55"/>
<path d="M78.7773 26.2812C79.1976 26.2812 79.4185 26.1963 79.4185 26.0266C79.4185 25.8757 79.2048 25.7982 78.796 25.7982H78.6755V26.2812H78.7773ZM80.325 27.2715H79.6035L78.6755 26.5691V27.2715H78.0859V25.4956H78.7056C79.5476 25.4956 79.9951 25.6767 79.9951 26.0226C79.9951 26.2534 79.7312 26.4582 79.3625 26.5193L79.3195 26.5283L80.325 27.2715Z" fill="#1B1B1B" fill-opacity="0.55"/>
<path d="M68.4238 23.1676V17.3996C68.4094 17.0806 67.9576 16.8359 67.3939 16.8359C66.8359 16.8359 66.3741 17.0904 66.3698 17.4085V23.1676H68.4238ZM68.4238 27.8638V24.7191H66.3698V27.8638H60.3281V16.4607C60.3281 15.8383 61.2103 15.3374 62.2932 15.3374H72.5003C73.5861 15.3374 74.4683 15.8383 74.4683 16.4607V27.8638H68.4238Z" fill="#1B1B1B" fill-opacity="0.55"/>
</svg>
