<svg width="106" height="40" viewBox="0 0 106 40" fill="none" xmlns="http://www.w3.org/2000/svg">
<mask id="mask0_6193_10732" style="mask-type:luminance" maskUnits="userSpaceOnUse" x="4" y="6" width="96" height="27">
<path d="M4.9375 6.91748H99.8113V32.5812H4.9375V6.91748Z" fill="white"/>
</mask>
<g mask="url(#mask0_6193_10732)">
<path d="M11.5021 15.5916C9.23938 15.5916 8.12861 17.6145 8.12861 20.3155V27.0844H4.9375V12.8004H8.07269V16.5063H8.12714C8.79654 14.2278 10.1309 12.3867 12.1892 12.3867C13.6369 12.3867 14.2475 12.8994 14.2475 12.8994L12.8071 15.8414C12.8071 15.8399 12.3481 15.5916 11.5021 15.5916ZM50.0793 17.5524V27.083H46.9706V18.7124C46.9706 16.3098 46.2276 15.0375 44.3298 15.0375C42.3642 15.0375 41.4138 16.6466 41.4138 19.7334V27.0815H38.3331V18.7124C38.3331 16.4028 37.5989 15.0375 35.7201 15.0375C33.575 15.0375 32.7496 16.9437 32.7496 19.7334V27.0815H29.6145V12.8004H32.7496V16.0349H32.7776C33.2661 13.7964 34.599 12.4148 36.8486 12.4148C39.0789 12.4148 40.5326 13.6309 41.0842 15.7867C41.6095 13.7121 43.0071 12.4148 45.1551 12.4148C48.152 12.4148 50.0793 14.3209 50.0793 17.5524ZM20.5193 12.3867C17.6343 12.3867 15.7467 13.7609 14.886 16.2418L17.5416 17.2215C18.0256 15.7246 19.0349 14.872 20.5753 14.872C22.3084 14.872 23.3264 15.6463 23.3264 16.8343C23.3264 18.0489 22.5158 18.303 20.6856 18.603C18.6494 18.9354 13.8076 19.0448 13.8076 23.188C13.8076 25.6157 15.8085 27.442 18.8142 27.442C21.0739 27.442 22.6129 26.5053 23.3249 24.7617H23.3529V27.083H26.4616V18.2986C26.4602 14.4554 24.5534 12.3867 20.5193 12.3867ZM23.4073 20.3598C23.4073 23.355 21.9464 25.2788 19.6116 25.2788C17.9609 25.2788 16.9708 24.3391 16.9708 22.9841C16.9708 21.7134 17.9888 20.8312 19.9411 20.4677C21.9391 20.0954 22.9454 19.6358 23.4073 18.5335V20.3598ZM61.1372 12.4148C58.7596 12.4148 57.1883 13.7402 56.516 15.732V12.8004H53.2145V32.5811H56.488V24.1529H56.516C57.2443 26.3102 58.7611 27.4967 61.1372 27.4967C64.9049 27.4967 67.6017 24.3479 67.6017 19.8989C67.6002 15.4808 64.9049 12.4148 61.1372 12.4148ZM60.325 24.8459C57.7151 24.8459 56.2674 22.925 56.2674 19.9417C56.2674 16.9584 57.8871 15.0375 60.325 15.0375C62.7614 15.0375 64.3826 17.0515 64.3826 19.9417C64.3826 22.8334 62.7629 24.8459 60.325 24.8459Z" fill="#1B1B1B" fill-opacity="0.55"/>
<path d="M100.029 27.0183V27.1073L87.2526 27.1119V27.0183C89.0949 25.9628 90.3666 24.8877 91.511 23.7642H96.7572L100.029 27.0183ZM96.8634 10.1398L93.6249 6.91748H93.5308C93.5308 6.91748 93.5854 12.9227 88.148 18.3842C82.8273 23.7295 76.5703 23.7416 76.5703 23.7416V23.8353L79.8695 27.1134C79.8695 27.1134 86.0355 27.1753 91.4821 21.756C96.909 16.3548 96.8634 10.1398 96.8634 10.1398Z" fill="#1B1B1B" fill-opacity="0.55"/>
</g>
</svg>
