<svg width="139" height="18" viewBox="0 0 139 18" fill="none" xmlns="http://www.w3.org/2000/svg">
<path d="M0 0.340175H6.43903C9.71929 0.340175 12.0519 2.18684 12.0519 5.5157C12.0519 7.96982 10.6912 9.5735 8.77166 10.3025L12.4407 17.4461H8.60157L5.4671 10.7398H3.42605V17.4461H0V0.340175ZM6.00166 7.92122C7.50815 7.92122 8.55298 7.14368 8.55298 5.61289C8.55298 4.20359 7.62964 3.35316 6.00166 3.35316H3.40175V7.89692H6.00166V7.92122ZM14.0201 11.736C14.0201 8.30999 16.1097 5.4914 19.9245 5.4914C22.9375 5.4914 25.6346 7.33807 25.6346 12.1248V12.5622H17.3003C17.3489 14.2631 18.3695 15.235 19.9731 15.235C21.1881 15.235 21.917 14.749 22.16 13.9229H25.4402C25.1001 15.5752 23.545 17.7377 19.9731 17.7377C16.1583 17.7377 14.0201 15.235 14.0201 11.736ZM22.3787 10.3996C22.3787 8.89315 21.3581 7.89692 19.9245 7.89692C18.4181 7.89692 17.4218 8.86885 17.276 10.3996H22.3787ZM29.3523 8.50438H27.5542V5.75868H29.3523V4.0578C29.3523 1.74947 30.8588 0.340175 33.0699 0.340175H35.1595V3.13447H33.7988C33.0213 3.13447 32.5839 3.57184 32.5839 4.34938V5.75868H35.1352V8.50438H32.5839V17.4461H29.3523V8.50438ZM37.1277 11.6389C37.1277 7.92122 39.679 5.39421 43.178 5.39421C46.7984 5.39421 49.1796 7.84833 49.1796 11.6389C49.1796 15.2107 46.8227 17.8349 43.1294 17.8349C39.3145 17.8349 37.1277 15.0406 37.1277 11.6389ZM45.8751 11.6389C45.8751 9.50061 44.9031 8.16421 43.178 8.16421C41.5743 8.16421 40.4323 9.37912 40.4323 11.6389C40.4323 13.7771 41.4042 15.1135 43.178 15.1135C45.0489 15.0892 45.8751 13.6313 45.8751 11.6389ZM52.1197 5.75868H55.4V8.2614C55.8373 6.65772 57.0522 5.66149 58.6316 5.66149H59.8465V8.99035H58.1943C56.4934 8.99035 55.4486 10.0109 55.4486 11.8818V17.4461H52.1197V5.75868ZM62.7866 5.75868H65.9211V7.45956C66.5528 6.14745 67.6949 5.4671 69.3957 5.4671C71.0966 5.4671 72.0928 6.39043 72.4816 7.60535C72.9676 6.48763 74.2311 5.4671 76.0049 5.4671C78.5562 5.4671 79.7225 7.31377 79.7225 8.99035V17.4461H76.3936V9.81649C76.3936 9.18473 75.9563 8.2128 74.7413 8.2128C73.575 8.2128 72.8947 9.03894 72.8947 10.3025V17.4461H69.663V9.81649C69.663 8.79596 68.8612 8.16421 67.9621 8.16421C66.9902 8.16421 66.0669 8.65017 66.0669 10.3996V17.4461H62.8352V5.75868H62.7866ZM82.7112 14.2631C82.7112 11.8575 84.412 10.5454 87.0606 10.5454H90.195V9.76789C90.195 8.50438 89.4175 7.87263 88.2512 7.87263C87.1334 7.87263 86.3559 8.50438 86.3073 9.5735H83.2214C83.4644 6.8278 85.5784 5.4671 88.4456 5.4671C91.6286 5.4671 93.4267 7.16798 93.4267 9.96227V17.4461H90.195V15.7453C89.7091 16.8144 88.7371 17.7377 86.769 17.7377C85.2139 17.7377 82.7112 16.9602 82.7112 14.2631ZM90.195 13.0482V12.5136H88.0568C86.8419 12.5136 86.0643 12.951 86.0643 13.9715C86.0643 14.8948 86.8905 15.3808 87.911 15.3808C89.2474 15.3808 90.195 14.5546 90.195 13.0482ZM97.606 13.9229V8.50438H95.7593V5.75868H97.606V2.40552H100.838V5.75868H103.535V8.50438H100.838V13.3883C100.838 14.1173 101.226 14.506 102.004 14.506H103.51V17.4461H101.154C99.0396 17.4461 97.606 16.1826 97.606 13.9229ZM106.402 1.99245C106.402 0.899035 107.301 0 108.394 0C109.488 0 110.387 0.899035 110.387 1.99245C110.387 3.08588 109.488 3.98491 108.394 3.98491C107.301 4.00921 106.402 3.11017 106.402 1.99245ZM106.791 5.75868H110.071V17.4461H106.791V5.75868ZM113.108 11.6389C113.108 7.92122 115.66 5.39421 119.159 5.39421C122.779 5.39421 125.16 7.84833 125.16 11.6389C125.16 15.2107 122.803 17.8349 119.11 17.8349C115.295 17.8349 113.108 15.0406 113.108 11.6389ZM121.856 11.6389C121.856 9.50061 120.884 8.16421 119.159 8.16421C117.555 8.16421 116.413 9.37912 116.413 11.6389C116.413 13.7771 117.385 15.1135 119.159 15.1135C121.005 15.0892 121.856 13.6313 121.856 11.6389ZM128.1 5.75868H131.332V7.36236C131.964 6.19605 133.179 5.4671 134.904 5.4671C137.139 5.4671 138.67 6.925 138.67 9.86508V17.4461H135.341V10.2539C135.341 8.94175 134.661 8.2128 133.494 8.2128C132.377 8.2128 131.453 9.08754 131.453 10.7155V17.4704H128.125V5.75868H128.1Z" fill="#1B1B1B" fill-opacity="0.55"/>
</svg>
