<svg width="171" height="32" viewBox="0 0 171 32" fill="none" xmlns="http://www.w3.org/2000/svg">
<path d="M166.25 0.00200373C164.876 -0.027505 163.242 0.2691 161.391 0.879555C161.113 0.976946 160.893 1.13079 160.696 1.32545C158.813 3.09293 156.981 4.96667 155.25 6.90388L155.117 7.05093C155.081 7.09258 155.076 7.15463 155.103 7.20272C155.131 7.25142 155.186 7.27655 155.241 7.26441L155.435 7.22409C158.225 6.62764 161.042 6.16977 163.805 5.86743C163.987 5.8474 164.175 5.90969 164.31 6.03346C164.446 6.15848 164.525 6.33682 164.521 6.52205C164.476 9.26436 164.574 12.0202 164.818 14.7142L164.834 14.8897C164.84 14.9435 164.878 14.9868 164.932 15.0012C164.941 15.0036 164.95 15.006 164.963 15.006C165.003 15.0066 165.044 14.9873 165.069 14.9515L165.171 14.8068C166.728 12.5855 168.423 10.4262 170.204 8.38404C170.404 8.15684 170.456 8.01392 170.493 7.8077C171.054 4.21799 170.189 1.56317 169.414 0.891589C168.742 0.308506 167.766 0.0345605 166.25 0.00200373ZM161.976 7.27388L161.806 7.29756C159.14 7.66469 156.442 8.17329 153.784 8.80839C153.521 8.88198 153.352 9.05315 153.315 9.09299C151.326 11.4746 149.443 13.9812 147.715 16.5499C147.629 16.6798 147.62 16.991 147.62 16.991C147.62 16.991 148.054 20.337 148.688 22.8019C147.117 27.319 145.716 33.2709 145.716 33.2709C145.705 33.3096 145.712 33.3499 145.735 33.3824C145.759 33.415 145.796 33.4357 145.837 33.4369H146.731C146.788 33.4378 146.837 33.4035 146.857 33.3516L146.918 33.1832C147.831 30.6942 148.871 28.2372 150.021 25.8425C150.288 25.2847 150.853 24.1585 150.853 24.1585C150.946 23.9757 151.379 23.1446 151.477 22.9584L151.493 22.9253C154.388 17.4641 157.918 12.3129 161.979 7.61542L162.09 7.48734C162.125 7.44654 162.132 7.3874 162.107 7.3403C162.08 7.29281 162.028 7.26684 161.976 7.27388ZM163.205 8.30323C163.155 8.28441 163.097 8.29716 163.063 8.33881L162.951 8.46925C158.216 13.9463 154.236 20.0254 151.121 26.5375L151.047 26.6893C151.024 26.7374 151.033 26.7953 151.069 26.834C151.093 26.8595 151.126 26.8739 151.161 26.8743C151.177 26.8749 151.197 26.8718 151.214 26.8646L151.37 26.7981C154.03 25.6962 156.747 24.7414 159.446 23.9615C159.607 23.9146 159.742 23.8025 159.818 23.6532C161.001 21.3473 163.748 16.8841 163.748 16.8841C163.819 16.7834 163.803 16.6327 163.803 16.6327C163.803 16.6327 163.32 11.2942 163.29 8.59234L163.288 8.42158C163.286 8.36803 163.254 8.3212 163.205 8.30323ZM156.182 26.2315L155.962 26.3074C154.532 26.7825 152.417 27.5128 150.519 28.3851C150.417 28.4328 150.35 28.5654 150.35 28.5654C150.315 28.6466 150.272 28.7481 150.222 28.8618L150.215 28.876C150.002 29.36 149.707 30.0882 149.582 30.3845L149.484 30.6193C149.469 30.6565 149.478 30.698 149.508 30.726C149.526 30.7428 149.546 30.7512 149.572 30.7521C149.585 30.7521 149.601 30.7497 149.615 30.7424L149.845 30.6334C150.364 30.3864 151.022 30.0123 151.711 29.6847L151.735 29.6725C153.046 29.0508 154.525 28.3491 155.416 27.9245C155.416 27.9239 155.559 27.8472 155.632 27.7039L156.298 26.3663C156.316 26.3313 156.311 26.2894 156.286 26.2595C156.259 26.2304 156.219 26.2193 156.182 26.2315Z" fill="#1B1B1B" fill-opacity="0.4"/>
<path d="M33.8516 3.26074V25.463H36.5577V23.9118H36.6194C37.6535 25.0981 39.5402 25.9207 41.1826 25.9207C45.4408 25.9207 48.1768 22.5744 48.1768 17.4037C48.1768 12.385 45.3176 8.8866 41.2419 8.8866C39.6299 8.8866 37.9282 9.67886 36.8637 10.8955H36.802V3.26074H33.8516ZM50.4892 3.26074V6.39387H53.6815V3.26074H50.4892ZM73.1178 3.26074V25.463H76.0682V15.3355C76.0682 13.1455 77.6502 11.6236 79.9009 11.6236C82.1213 11.6236 83.3992 13.0837 83.3992 15.6082V25.463H86.3497V14.8801C86.3497 11.1997 84.1288 8.8866 80.6006 8.8866C78.8061 8.8866 76.9815 9.73816 76.1299 10.9548H76.0682V3.26074H73.1178ZM132.885 3.26074V10.8955H132.824C131.759 9.64844 130.086 8.8866 128.474 8.8866C124.398 8.8866 121.508 12.4458 121.508 17.4037C121.508 22.5744 124.246 25.9207 128.505 25.9207C130.147 25.9207 132.031 25.0981 133.065 23.9118H133.127V25.463H135.833V3.26074H132.885ZM0 4.17387V25.463H3.04055V17.0384H7.39029C10.736 17.0384 11.9535 18.3772 11.9535 22.0879V25.463H14.9039V22.0879C14.9039 18.6892 13.8663 16.6713 11.6143 15.8407C13.9229 15.0319 15.5111 13.1283 15.5111 10.3476C15.5111 6.57602 12.7117 4.17387 8.33186 4.17387H0ZM3.04055 6.94175H8.05911C10.9486 6.94175 12.4397 8.1875 12.4397 10.6512C12.4397 13.0237 10.9186 14.3322 8.08994 14.3322H3.04055V6.94175ZM24.2698 8.8866C19.89 8.8866 16.8795 12.385 16.8795 17.4037C16.8795 22.544 19.7988 25.9207 24.2698 25.9207C28.6801 25.9207 31.57 22.544 31.57 17.4037C31.57 12.385 28.5888 8.8866 24.2698 8.8866ZM64.2665 8.8866C62.5633 8.8866 60.7396 9.70928 59.8575 10.8955H59.7958V9.34435H56.9071V25.463H59.8575V15.3355C59.8575 13.0543 61.3482 11.6236 63.6902 11.6236C66.0018 11.6236 67.096 12.9641 67.096 15.7624V25.463H70.0772V14.9086C70.0772 11.1978 67.8251 8.8866 64.2665 8.8866ZM95.8674 8.8866C91.4875 8.8866 88.4771 12.385 88.4771 17.4037C88.4771 22.544 91.3963 25.9207 95.8674 25.9207C100.278 25.9207 103.168 22.544 103.168 17.4037C103.168 12.385 100.186 8.8866 95.8674 8.8866ZM112.384 8.8866C108.004 8.8866 104.994 12.385 104.994 17.4037C104.994 22.544 107.913 25.9207 112.384 25.9207C116.794 25.9207 119.684 22.544 119.684 17.4037C119.684 12.385 116.703 8.8866 112.384 8.8866ZM50.6102 9.34435V25.463H53.5606V9.34435H50.6102ZM24.2698 11.5952C26.9464 11.5952 28.6504 13.8754 28.6504 17.4037C28.6504 20.9624 26.9464 23.243 24.2698 23.243C21.502 23.243 19.7991 20.9928 19.7991 17.4037C19.7991 13.8146 21.502 11.5952 24.2698 11.5952ZM40.7248 11.5952C43.6143 11.5952 45.2264 13.6929 45.2264 17.4037C45.2264 21.1449 43.6143 23.243 40.7248 23.243C38.5045 23.243 36.802 21.7236 36.802 19.7162V15.3971C36.802 13.2376 38.5045 11.5952 40.7248 11.5952ZM95.8674 11.5952C98.5439 11.5952 100.248 13.8754 100.248 17.4037C100.248 20.9624 98.5439 23.243 95.8674 23.243C93.0996 23.243 91.3967 20.9928 91.3967 17.4037C91.3967 13.8146 93.0996 11.5952 95.8674 11.5952ZM112.384 11.5952C115.061 11.5952 116.765 13.8754 116.765 17.4037C116.765 20.9624 115.061 23.243 112.384 23.243C109.616 23.243 107.913 20.9928 107.913 17.4037C107.913 13.8146 109.616 11.5952 112.384 11.5952ZM128.96 11.5952C131.18 11.5952 132.885 13.2376 132.885 15.3971V19.7162C132.885 21.7236 131.18 23.243 128.96 23.243C126.071 23.243 124.458 21.1449 124.458 17.4037C124.458 13.6929 126.071 11.5952 128.96 11.5952Z" fill="#1B1B1B" fill-opacity="0.4"/>
</svg>
