<svg width="147" height="32" viewBox="0 0 147 32" fill="none" xmlns="http://www.w3.org/2000/svg">
<path d="M123.226 31.1658H130.293V18.3678C130.293 15.4485 132.015 13.3826 134.551 13.3826C136.998 13.3826 138.266 15.0895 138.266 17.5147V31.1661H145.333V16.1677C145.333 11.0926 142.253 7.50001 137.27 7.50001C134.099 7.50001 131.879 8.84744 130.203 11.3172H130.067V8.17384H123.226V31.1658H123.226ZM109.364 7.54488C101.98 7.54488 97.0426 12.799 97.0426 19.7147C97.0426 26.5858 101.98 31.8848 109.364 31.8848C116.748 31.8848 121.686 26.5858 121.686 19.7147C121.686 12.7988 116.748 7.54488 109.364 7.54488ZM109.319 26.7202C105.966 26.7202 104.2 23.9363 104.2 19.7147C104.2 15.4485 105.966 12.709 109.319 12.709C112.671 12.709 114.528 15.4483 114.528 19.7147C114.528 23.9363 112.671 26.7202 109.319 26.7202ZM76.9285 31.1658H96.7705V25.6427H85.536V25.5074L96.2723 13.5621V8.17384H76.9285V13.697H87.8008V13.8319L76.9285 25.8668V31.1658ZM67.8674 31.1658H74.9796V8.17384H67.8674V31.1658ZM51.3777 31.1658H58.4446V20.6132C58.4446 15.8078 61.3439 13.697 65.7833 14.2811H65.9194V8.21871C65.5568 8.08385 65.1493 8.03898 64.4698 8.03898C61.7065 8.03898 59.8491 9.29618 58.2633 11.9906H58.1272V8.17384H51.3777V31.1658ZM38.3765 26.7655C35.2506 26.7655 33.3481 24.744 32.9855 21.6462H49.7015C49.7468 16.7057 48.4328 12.7539 45.6695 10.2841C43.722 8.48797 41.1393 7.49977 37.8778 7.49977C30.9019 7.49977 26.0543 12.7539 26.0543 19.6247C26.0543 26.5402 30.6751 31.8392 38.331 31.8392C41.2303 31.8392 43.5405 31.0759 45.4432 29.7733C47.4819 28.3819 48.9312 26.3604 49.3387 24.3399H42.5438C41.8646 25.8668 40.46 26.7655 38.3765 26.7655ZM38.0139 12.5293C40.5053 12.5293 42.2267 14.3711 42.4986 17.0652H33.0307C33.5747 14.3255 35.0693 12.5293 38.0139 12.5293ZM67.8674 0H74.9796V6.24233H67.8674V0ZM18.1998 31.1663C18.3861 31.1663 18.5536 31.0529 18.6203 30.8798L27.4138 8.17384H20.2797L14.6328 22.7549L8.98591 8.17384H1.85156L10.6451 30.8798C10.7118 31.0529 10.8793 31.1663 11.0656 31.1663H18.1998Z" fill="#1B1B1B" fill-opacity="0.55"/>
</svg>
