<svg width="137" height="31" viewBox="0 0 137 31" fill="none" xmlns="http://www.w3.org/2000/svg">
<g clip-path="url(#clip0_6193_17099)">
<path fill-rule="evenodd" clip-rule="evenodd" d="M17.3145 8.00513C17.444 7.97117 17.5031 8.02022 17.5799 8.11079C18.0201 8.63407 19.439 10.458 19.8252 10.9574C19.8392 10.975 19.8496 10.9954 19.8555 11.0172C19.8614 11.039 19.8629 11.0618 19.8597 11.0842C19.8565 11.1066 19.8488 11.128 19.837 11.1473C19.8252 11.1666 19.8096 11.1833 19.7912 11.1964C16.9308 13.5524 13.7484 16.8845 11.9748 19.2719C11.9371 19.3223 11.9686 19.326 11.9937 19.3147C15.083 17.9109 22.3384 15.6706 25.6113 15.043V10.6731L12.8189 0L0 10.6731V15.4492C3.97358 12.9574 13.1547 9.09948 17.3145 8.00513ZM76.7862 1.48555H82.4151V29.5765H76.7862V1.48555ZM72.6163 1.48555H66.9874V29.5777H72.6163V1.48555ZM109.991 11.1964H104.43L110.062 29.5802H115.24L116.654 24.9324C117.215 23.0858 118.151 19.638 118.151 19.638C118.153 19.6287 118.159 19.6204 118.166 19.6144C118.174 19.6085 118.183 19.6053 118.192 19.6053C118.211 19.6053 118.228 19.6179 118.234 19.638C118.234 19.638 119.171 23.1525 119.703 24.9638L121.091 29.5765H126.177L131.769 11.1951H126.6L124.987 16.7562C124.495 18.5189 124.017 20.2854 123.552 22.0556C123.55 22.0649 123.545 22.0732 123.537 22.0791C123.53 22.0851 123.52 22.0883 123.511 22.0883C123.501 22.0883 123.492 22.0851 123.484 22.0791C123.477 22.0732 123.471 22.0649 123.469 22.0556C123.469 22.0556 122.601 18.6619 122.039 16.7562L120.379 11.1964H116.27L114.58 16.7562C114.05 18.5348 113.121 22.0581 113.121 22.0581C113.118 22.0667 113.112 22.0742 113.105 22.0794C113.097 22.0846 113.088 22.0873 113.079 22.0871C113.07 22.087 113.062 22.0842 113.054 22.079C113.047 22.0738 113.042 22.0665 113.039 22.0581C113.039 22.0581 112.141 18.599 111.603 16.7562L109.991 11.1964ZM85.2012 20.4493C85.2012 14.8643 89.4692 10.7272 94.6906 10.7272C99.8604 10.7272 104.13 14.8656 104.13 20.4493C104.13 26.0506 99.8629 30.1891 94.6906 30.1891C89.4704 30.1891 85.2012 26.0506 85.2012 20.4531V20.4493ZM98.7283 20.4493C98.7283 17.7147 96.8792 15.853 94.6906 15.853C92.4503 15.853 90.6025 17.7147 90.6025 20.4493C90.6025 23.2028 92.4503 25.0456 94.6906 25.0456C96.8792 25.0456 98.7283 23.2028 98.7283 20.4493ZM34.4264 4.08433V9.50075H44.3748C44.4151 9.50075 44.4302 9.541 44.4101 9.57622L34.4226 27.4909L34.405 27.5236C34.1786 27.9614 34.1245 28.067 34.1245 28.5211V29.5777H53.5031V24.1714H42.7384C42.7298 24.1713 42.7215 24.1688 42.7143 24.1641C42.7072 24.1595 42.7015 24.1528 42.6981 24.145C42.6943 24.1369 42.6928 24.128 42.6936 24.1191C42.6945 24.1102 42.6978 24.1018 42.7031 24.0946L52.8063 5.94473L52.834 5.88686C52.9044 5.73592 52.9723 5.59504 52.9723 5.21767L52.9748 4.08558L34.4264 4.08433ZM59.9019 1.9887C61.6566 1.9887 63.1069 3.48306 63.1069 5.32334C63.1069 7.16487 61.6566 8.66174 59.9019 8.66174C58.1472 8.66174 56.6981 7.16738 56.6981 5.32585C56.6981 3.48432 58.1472 1.98996 59.9019 1.98996V1.9887ZM57.088 11.1964H62.7157V29.5777H57.088V11.1964ZM6.63019 26.3173C6.69937 26.4028 6.81887 26.4205 6.90692 26.3601C11.6591 23.7764 22.1132 20.4971 25.6113 19.8694V29.6884H0.00125785V19.487C2.63396 17.9147 9.74591 14.6895 12.2491 13.8266C12.2994 13.809 12.3107 13.8392 12.2679 13.8731C9.86541 15.7562 6.09937 20.2002 4.25409 23.0569C4.16981 23.1902 4.17484 23.233 4.24151 23.3148L6.63019 26.3173ZM134.687 7.67808C135.174 7.67808 135.521 8.0479 135.521 8.57621C135.521 8.97621 135.316 9.29194 135.004 9.41647L135.483 10.2467H135.028L134.582 9.47433H134.19V10.2442H133.79V7.67808H134.687ZM134.19 9.09697H134.662C134.927 9.09697 135.122 8.88061 135.122 8.57998C135.122 8.27809 134.927 8.05796 134.663 8.05796H134.19V9.09697ZM134.566 6.7875C133.716 6.7875 132.95 7.32839 132.625 8.15608C132.465 8.56077 132.423 9.00244 132.504 9.43003C132.584 9.85763 132.784 10.2537 133.08 10.5725C133.365 10.8801 133.738 11.0917 134.149 11.1778C134.559 11.2639 134.986 11.2203 135.37 11.053C136.155 10.7096 136.667 9.90075 136.667 9.00388C136.665 7.77997 135.726 6.78876 134.566 6.7875ZM134.566 10.7951C133.879 10.7951 133.26 10.3586 132.997 9.68943C132.868 9.36249 132.834 9.00574 132.899 8.66032C132.964 8.31489 133.126 7.99488 133.365 7.7372C133.85 7.22399 134.581 7.07053 135.215 7.34852C135.849 7.62525 136.263 8.27935 136.263 9.00388C136.262 9.99258 135.503 10.7938 134.566 10.7951Z" fill="#1B1B1B" fill-opacity="0.55"/>
</g>
<defs>
<clipPath id="clip0_6193_17099">
<rect width="136.667" height="30.1891" fill="white"/>
</clipPath>
</defs>
</svg>
