<svg fill="none" viewBox="0 0 104 25" width="100%" xmlns="http://www.w3.org/2000/svg"><path d="M27.4779 12.9018V12.8545C27.4779 8.22264 31.0723 4.39426 36.0855 4.39426C41.146 4.39426 44.6458 8.22265 44.6458 12.8073V12.8545C44.6458 17.4864 41.0514 21.3148 36.0382 21.3148C31.025 21.3148 27.4779 17.4864 27.4779 12.9018ZM41.6662 12.9018V12.8545C41.6662 9.68783 39.3488 7.04105 36.0855 7.04105C32.8222 7.04105 30.5521 9.64056 30.5521 12.8073V12.8545C30.5521 16.0212 32.8695 18.668 36.1328 18.668C39.3961 18.668 41.6662 16.0685 41.6662 12.9018ZM48.9022 6.00124V19.7551C48.9022 20.5585 49.5171 21.173 50.3211 21.173C51.1251 21.173 51.7399 20.5585 51.7399 19.7551V9.92415L55.7126 15.8794C56.0437 16.352 56.3747 16.6356 56.895 16.6356C57.4152 16.6356 57.7935 16.352 58.1246 15.8794L62.1446 9.87688V19.7078C62.1446 20.464 62.8067 21.1257 63.5634 21.1257C64.3674 21.1257 65.0296 20.5113 65.0296 19.7078V6.00124C65.0296 5.19775 64.4147 4.53605 63.5634 4.53605H63.2797C62.7121 4.53605 62.2865 4.77237 61.9554 5.29228L56.9422 13.0908L52.0236 5.33954C51.7399 4.91417 51.3142 4.58332 50.6994 4.58332H50.4156C49.5643 4.53605 48.9022 5.19775 48.9022 6.00124ZM69.1915 19.1879L75.2924 5.62313C75.6235 4.91417 76.191 4.44153 77.0423 4.44153H77.1842C77.9882 4.44153 78.5557 4.8669 78.8868 5.62313L84.9877 19.1879C85.0823 19.3769 85.1296 19.6133 85.1296 19.8023C85.1296 20.5585 84.5621 21.173 83.7581 21.173C83.096 21.173 82.623 20.7949 82.3393 20.1804L81.015 17.1083H73.0223L71.6508 20.275C71.4143 20.8421 70.9413 21.173 70.3265 21.173C69.5698 21.173 69.0023 20.6058 69.0023 19.8496C69.0023 19.6133 69.0969 19.3769 69.1915 19.1879ZM79.9745 14.5088L77.0896 7.8918L74.2046 14.5088H79.9745ZM89.1023 6.09577C89.1023 5.29228 89.7171 4.63058 90.5684 4.63058H95.2506C100.406 4.63058 104 8.17538 104 12.76V12.8073C104 17.4391 100.406 20.9839 95.2506 20.9839H90.5684C89.7644 20.9839 89.1023 20.3695 89.1023 19.5187V6.09577ZM95.2506 18.4317C98.703 18.4317 100.973 16.1157 100.973 12.9018V12.8545C100.973 9.64056 98.703 7.27737 95.2506 7.27737H91.9873V18.4317H95.2506ZM0 20.6058C0 21.362 0.614825 22.0237 1.41883 22.0237C2.17553 22.0237 2.83765 21.4093 2.83765 20.6058V6.80473L20.1946 21.2202C20.7149 21.6456 21.0459 21.9765 21.7553 21.9765H21.8499C22.6539 21.9765 23.2688 21.362 23.2688 20.5585V4.11068C23.2688 3.35446 22.6539 2.69276 21.8499 2.69276C21.0932 2.69276 20.4311 3.30719 20.4311 4.11068V17.7227L3.3106 3.49625C2.83765 3.07087 2.4593 2.69276 1.74989 2.69276H1.46612C0.614825 2.69276 0 3.35446 0 4.15794V20.6058ZM8.2292 12.8545C7.42519 12.8545 6.81037 13.4689 6.81037 14.2724V22.7327C6.81037 23.4889 7.42519 24.1506 8.2292 24.1506C8.9859 24.1506 9.64802 23.5362 9.64802 22.7327V14.2252C9.64802 13.4689 9.0332 12.8545 8.2292 12.8545ZM15.0869 18.4789C14.2829 18.4789 13.668 19.0934 13.668 19.8968V22.7327C13.668 23.4889 14.2829 24.1506 15.0869 24.1506C15.8436 24.1506 16.5057 23.5362 16.5057 22.7327V19.8968C16.4584 19.0934 15.8436 18.4789 15.0869 18.4789ZM15.0869 0.896729C14.2829 0.896729 13.668 1.51116 13.668 2.31465V10.3023C13.668 11.0585 14.2829 11.7202 15.0869 11.7202C15.8436 11.7202 16.5057 11.1057 16.5057 10.3023V2.31465C16.4584 1.51116 15.8436 0.896729 15.0869 0.896729ZM8.2292 0.896729C7.42519 0.896729 6.81037 1.51116 6.81037 2.31465V4.67785C6.81037 5.43407 7.42519 6.09577 8.2292 6.09577C8.9859 6.09577 9.64802 5.48133 9.64802 4.67785V2.31465C9.64802 1.51116 9.0332 0.896729 8.2292 0.896729Z" fill="currentColor"></path></svg>